<svg xmlns="http://www.w3.org/2000/svg" viewBox="0 0 149.2 90.7"><defs><style>.cls-1,.cls-4,.cls-5{fill:#1f3d8a;}.cls-2{fill:#009245;}.cls-3{fill:#c1292e;}.cls-4{stroke:#1f3d8a;stroke-miterlimit:10;stroke-width:4px;}.cls-5{fill-rule:evenodd;}</style></defs><g id="Capa_2" data-name="Capa 2"><g id="Livello_1" data-name="Livello 1"><path class="cls-1" d="M119,90.6h6.8l.9-12.5a31.18,31.18,0,0,0,0-4.6h.1s.9,2.9,1.5,4.6l2.9,8H137l2.9-8c.6-1.7,1.5-4.6,1.5-4.6h.1a31.56,31.56,0,0,0,0,4.6l.9,12.5h6.8L147,62.9h-7.4l-4,11.7c-.6,1.8-1.4,4.6-1.4,4.6h-.1s-.8-2.8-1.4-4.6l-4-11.7h-7.4Z"/><path class="cls-1" d="M137.7.1h-7.1l-9.4,27.7h7l1.7-5.8h8.6l1.7,5.8h7Zm-6.3,16.4,1.6-5.4c.5-1.7,1.1-4.8,1.1-4.8h.1s.6,3,1.1,4.8l1.5,5.4Z"/><path class="cls-1" d="M132.8,31.3H123V59h9.8c8.7,0,14.3-5.2,14.3-13.9s-5.6-13.8-14.3-13.8m-.3,21.8h-2.8V37h2.8c4.6,0,7.5,2.7,7.5,8s-2.8,8.1-7.5,8.1"/><path class="cls-1" d="M95.3,12.2h0v-.3h.5c.1,0,.1-.1.2-.1a1.63,1.63,0,0,0,.3-.6l.5-1.1,1.3-3a13.36,13.36,0,0,0,.7-1.8h.3l2.1,4.9.3.7.3.6c.1.2.2.3.2.4s.1.1.2.1h.4v.3h-2.5V12h.7c.1,0,.1-.1.1-.2a.37.37,0,0,0-.1-.3l-.6-1.5H97.4l-.5,1.3a1.09,1.09,0,0,0-.1.5c0,.1,0,.1.1.2a3.55,3.55,0,0,0,.7.1h0v.3H96.5a1.32,1.32,0,0,0-1.2-.2m2.3-2.8h2.5L98.9,6.5Z"/><path class="cls-1" d="M102.5,21.5v.2l-.2.1a.1.1,0,0,0-.1.1v.9a2.77,2.77,0,0,0,.1.9h0a8.68,8.68,0,0,1-2.8.5,4.48,4.48,0,0,1-2-.4,4.07,4.07,0,0,1-1.4-1.2,3.83,3.83,0,0,1-.5-1.9A3.42,3.42,0,0,1,96.8,18a4.36,4.36,0,0,1,3-1,7,7,0,0,1,2.5.5v.1a8.79,8.79,0,0,0-.2,1.4h-.2v-.8a.1.1,0,0,0-.1-.1c-.1,0-.2-.1-.5-.2a1.85,1.85,0,0,0-.7-.2c-.2,0-.5-.1-.8-.1a2.93,2.93,0,0,0-1.6.4,1.82,1.82,0,0,0-1,1.1,4.15,4.15,0,0,0-.3,1.6,3.29,3.29,0,0,0,.4,1.7,3.18,3.18,0,0,0,1.1,1.2,2.93,2.93,0,0,0,1.6.4,2.2,2.2,0,0,0,.8-.1,6.37,6.37,0,0,0,.7-.2V22.1c0-.1-.1-.1-.2-.1h-.8v-.2h1.6c-.3-.3,0-.4.4-.3Z"/><path class="cls-1" d="M96.3,29.3h5.1a13.89,13.89,0,0,0-.2,1.5H101v-.1a2.2,2.2,0,0,0-.1-.8,2,2,0,0,0-.9-.2h-.8a3.75,3.75,0,0,0-1,.1v2.7H100c.2,0,.3,0,.4-.1l.1-.1v-.6h.2v2.2h-.2v-.3a1,1,0,0,0-.1-.4.1.1,0,0,0-.1-.1,1,1,0,0,0-.4-.1H98.2v2.9h2.4c.2,0,.4-.1.6-.1a2,2,0,0,0,.1-.5,1.34,1.34,0,0,0,.1-.5h.2a5.64,5.64,0,0,0-.1.7v.9H96.8v-.2h0a1.24,1.24,0,0,0,.3-.2,3.14,3.14,0,0,0,.1-.9v-5c0-.1,0-.1-.1-.1a.1.1,0,0,1-.1-.1h-.6v-.6Z"/><path class="cls-1" d="M95.2,48.2h0v-.3h.5a.35.35,0,0,0,.3-.3V42.2c0-.2,0-.3-.1-.4l-.2-.2h-.5v-.2h1.7l1.6,2,2.3,2.9a7,7,0,0,1,.8,1V42.1c0-.1,0-.2-.1-.2a.35.35,0,0,0-.2-.1h-.5v-.2h2.1v.2h-.5a.35.35,0,0,0-.2.1.31.31,0,0,1-.1.2v6.4a4.54,4.54,0,0,0-.8-.2l-.3-.4-1-1.3-3.3-4.1v5.2c0,.1,0,.1.1.2a.35.35,0,0,0,.2.1h.5v.2h-.8a7.22,7.22,0,0,0-1.5,0"/><path class="cls-1" d="M95.9,60.1v-.2l1.2-1.5,2.8-3.6q.6-.75.9-1.2H98.1c-.4,0-.7,0-.8.1a.35.35,0,0,0-.2.1.44.44,0,0,0-.1.3l-.1.6h-.2V53.2h5.4v.2c-.4.4-.6.7-.8.9l-4.1,5.2h3.2c.4,0,.7,0,.8-.1a.37.37,0,0,0,.3-.1l.1-.1a.77.77,0,0,1,.1-.3l.1-.7h.2a14.89,14.89,0,0,1-.1,1.7H98.6a6.58,6.58,0,0,1-2.7.2Z"/><path class="cls-1" d="M97.6,65.2h2.8v.2h-.5a.37.37,0,0,0-.3.1c-.1,0-.1.1-.1.3v5.6c0,.1,0,.2.1.2a.35.35,0,0,0,.2.1,1.76,1.76,0,0,1,.6.1h0V72H97.6v-.2h.6c.1,0,.2,0,.2-.1a.35.35,0,0,0,.1-.2V65.8c0-.1,0-.2-.1-.2a.35.35,0,0,0-.2-.1,1.76,1.76,0,0,1-.6-.1h0v-.2Z"/><path class="cls-1" d="M95.3,84.2h0v-.3h.5c.1,0,.1-.1.2-.1a1.63,1.63,0,0,0,.3-.6l.5-1.1,1.3-3a13.36,13.36,0,0,0,.7-1.8h.3l2.1,4.9.3.7.3.6c.1.2.2.3.2.4a.35.35,0,0,0,.2.1h.4v.3h-2.5V84h.7c.1,0,.1-.1.1-.2a.37.37,0,0,0-.1-.3l-.6-1.5H97.4l-.5,1.3a1.09,1.09,0,0,0-.1.5c0,.1,0,.1.1.2a3.55,3.55,0,0,0,.7.1h0v.3H96.5a2.54,2.54,0,0,0-1.2-.2m2.3-2.7h2.5l-1.2-2.9Z"/><rect class="cls-2" x="92.2" width="0.8" height="90.6"/><rect class="cls-3" x="105.5" y="0.1" width="0.8" height="90.6"/><path class="cls-1" d="M20.2,17.6l.6-.3.1.3h0l1,2.2-.4.3A19.2,19.2,0,0,0,20,21.5l-.7.7-.3.3-.5-.4h0l.2-1.2h0c.1-.1.2-.3.4-.4l.5-.5.7-.7-.2-.4-.3-.7Z"/><path class="cls-1" d="M11.9,32.7l-.6-.3h0L11,33v.1l-.3.5h0l.8.4.3.2c-.2,1-.3,1.9-.4,2.8l-2.1.4-.7.1h0v4.6l2.7.6c.1.9.2,1.8.4,2.8L9.2,46.9l.2.5c.1.3.3,1,.5,1.7,0,.1.1.3.1.4l.1.3h.1l.5-.2.4-.9h0c-.1-.2-.1-.5-.2-.7h0c0-.1-.1-.3-.1-.4l.4-.2.8-.5h0l.9-1.4h0c0-.2-.1-.4-.1-.6-.2-1-.3-1.8-.4-2.7v-.5l-2.7-.6V38.7l2.7-.6v-.5a25.83,25.83,0,0,1,.6-3.7l.1-.5-.6-.4-.6-.3Z"/><path class="cls-1" d="M67.1,49.7l-.4-.1-.4-.9c0-.1.1-.2.1-.3s0-.1.1-.2.1-.3.1-.4l-1.5-.9-.4-.3.4-.8h.1l.2-.4.4.2L68.3,47l-.1.5c-.1.3-.2.8-.3,1.1v.1c-.1.2-.1.4-.2.6Z"/><path class="cls-1" d="M38.8,70.2H36.5l-.6-2.7a27,27,0,0,1-2.8-.4l-1.4,2.4-.5-.1-3.4-1.1-.5-.2.3-2.8c-.9-.4-1.7-.8-2.6-1.3l-2,1.9-.4-.3c-.5-.3-2.4-1.7-2.9-2.1l-.4-.3,1.1-2.6c-.8-.7-1.4-1.4-2-2l-2.5,1.2-.3-.4c-.1-.1-.2-.3-.4-.5l-.1-.2a5.5,5.5,0,0,0-.7-.9l1.1-.8c.2.3.5.6.7.9l.1.2h0L18.8,57l.3.4A31.87,31.87,0,0,0,21.7,60l.4.3L21,62.8c.5.4,1.4,1,2,1.4l2-1.8.4.3c1.1.6,2.2,1.2,3.3,1.7l.5.2-.3,2.7a20.94,20.94,0,0,1,2.3.8l1.3-2.4.5.1a25.83,25.83,0,0,0,3.7.6h.5l.6,2.7h2.4l.5-2.7h.5a20.43,20.43,0,0,0,3.7-.6l.5-.1,1.4,2.4a15.55,15.55,0,0,0,2.3-.8l-.3-2.7.5-.2a25.47,25.47,0,0,0,3.3-1.7l.4-.3,2,1.8c.5-.4,1.4-1,2-1.4l-1.1-2.5.4-.3a21.24,21.24,0,0,0,2.6-2.6l.3-.4,2.5,1.1a11.07,11.07,0,0,0,1.1-1.6c.1-.2.2-.3.3-.5l1.1.8a2.19,2.19,0,0,0-.3.5c-.4.6-1.2,1.7-1.5,2.1l-.3.4-2.5-1.1a18.88,18.88,0,0,1-2,2l1.2,2.5-.4.3c-.4.3-2.4,1.8-2.9,2.1l-.4.3L53,64a21,21,0,0,1-2.6,1.3l.3,2.8-.5.2-3.4,1.1-.5.1-1.4-2.4c-.9.2-1.8.3-2.8.5l-.5,2.7h-.5A19.3,19.3,0,0,0,38.8,70.2Z"/><path class="cls-1" d="M60.6,22.3l-.5.3-1.2.6-.3-.4A31.89,31.89,0,0,0,56,20.2l-.4-.3,1.1-2.5a11.32,11.32,0,0,1-1.3-1c-.2-.2-.5-.3-.7-.5l-2,1.9-.4-.3c-1.1-.6-2.2-1.2-3.3-1.7l-.5-.2.3-2.7a20.16,20.16,0,0,0-2.3-.7l-1.3,2.4-.5-.1a23.76,23.76,0,0,0-3.7-.6h-.5l-.6-2.7H37.5L37,13.9h-.5a19.31,19.31,0,0,0-3.6.6l-.5.1L31,12.2c-.6.2-1.7.5-2.3.7l.3,2.7-.5.2a25.86,25.86,0,0,0-3.3,1.7l-.4.3-2-1.8c-.1.1-.2.2-.3.2-.3.2-.7.5-1.1.8h0a.1.1,0,0,0-.1.1l-.4-.5.6-1.3c.1-.1.2-.1.3-.2.4-.3.7-.5.8-.6l.2-.1h0l.3-.2,2.1,1.9a21,21,0,0,1,2.6-1.3l-.3-2.7.5-.2c.6-.2,2.9-1,3.4-1.1l.5-.1,1.4,2.4a23.25,23.25,0,0,1,2.8-.5l.5-2.7.5-.1h4.2l.6,2.7a13.73,13.73,0,0,1,2.8.5l1.4-2.4.5.1c.6.2,2.9.9,3.5,1.1l.5.2-.3,2.7c.9.4,1.7.8,2.6,1.3l2-1.9h0l.4.2c.1,0,.1.1.2.1l1,.7h0a5.55,5.55,0,0,1,.8.6h0l.1.1c.4.3.7.5.8.6l.4.3-.3.7-.8,1.8c.7.7,1.4,1.3,2,2l.8-.4.3-.1.3.6Z"/><path class="cls-1" d="M64.9,41.8h0l.5-.2h0l2.1-.4V38.8l-2.7-.5v-.5a19.31,19.31,0,0,0-.6-3.6l-.1-.5,1.1-.6,1-.6.5.1.2.3-.2.9h0l-.7.4-.3.2a23.25,23.25,0,0,1,.5,2.8l1.4.3.9.2a5.58,5.58,0,0,0,.5.8v4l-2.7.6c-.1.5-.1,1.1-.2,1.7H66l-.6-.1Z"/><path class="cls-4" d="M25.6,58.1l4.6-15.4L17.5,33l16-.4,5.3-15.1,5.3,15.1,16,.4L47.4,42.7,52,58,38.8,48.9ZM38.7,47.3l10.8,7.4L45.8,42.2l10.4-8-13.1-.3L38.7,21.5,34.4,33.8l-13.1.3L31.7,42,28,54.6Z"/><path class="cls-1" d="M44.6,33.5H43.5l-.3-.8-.4-14.4.5.1A22,22,0,0,1,58,29.2l.3.5Zm-.6-.9h.5L57,29.1a20.92,20.92,0,0,0-13.4-9.8L44,32.5Z"/><path class="cls-1" d="M33,33.4l-13.6-4,.3-.4A22.05,22.05,0,0,1,34.5,18.4l.5-.1-.6,14.3-.3.8ZM20.6,28.9l12.5,3.7h.4l.1-.2.6-13.2A21.52,21.52,0,0,0,20.6,28.9Z"/><path class="cls-1" d="M22.8,55.1l-.3-.4a23.08,23.08,0,0,1-4.1-6.5V48a19.65,19.65,0,0,0,.6-4.6c0-.2-.1-.3-.1-.4h0l-1.4,1.1L18.6,42c0-.1.1-.2.1-.3a3.46,3.46,0,0,0-1.2.3l-.5.3v-.6a20.77,20.77,0,0,1,.1-4.3l.1-.5L31,42l.5.4-.3.9Zm-3.6-7a20.83,20.83,0,0,0,3.5,5.7l7.5-10.9.1-.3L17.7,37.9c-.1,1-.1,2-.1,3a1.88,1.88,0,0,1,1.5,0h0c.3.2.3.7.1,1.2a1.6,1.6,0,0,1,.5,1A15.86,15.86,0,0,1,19.2,48.1Z"/><path class="cls-1" d="M38.7,61.9a22.75,22.75,0,0,1-9.2-2l-.5-.2,9.1-11.5.6-.4.5.4v.1l8.9,11.6-.5.2A22.12,22.12,0,0,1,38.7,61.9Zm-8.4-2.5a21.26,21.26,0,0,0,16.6.1L38.7,48.8Z"/><path class="cls-1" d="M54.5,55.3l-7.9-12-.3-1,.4-.3h.1l13.8-4.9.1.5a20.15,20.15,0,0,1-.2,6l-.1.4-.4-.1c-.2,0-.3,0-.4.1s-.1.2-.1.4a3.74,3.74,0,0,0,.4,1.1l.1.1v.1a21.66,21.66,0,0,1-5.1,9.1ZM47.3,43l7.3,11a22,22,0,0,0,4.5-8.2,4.15,4.15,0,0,1-.4-1.2,1.13,1.13,0,0,1,.3-1.1.86.86,0,0,1,.6-.3,26.8,26.8,0,0,0,.2-4.9L47.2,42.8Z"/><path class="cls-5" d="M78.2,46a2.89,2.89,0,0,0,.3-3.5c.3-1.7.1-2.8-.5-3.2s-1.4-.3-2.3.4c-.5-.3-1.3,0-2.2.8a1.08,1.08,0,0,0,0-1.1,4.4,4.4,0,0,0,1.6-1.2,5.58,5.58,0,0,0,.4-2.1,10,10,0,0,1,1.6-3.2c.7-1.5.2-2.1-1.5-1.6.9-.8,1.4-1.5,1.4-2.1a3.7,3.7,0,0,0-.7-2.2c-.2-.5-.5-.6-1-.3a3.54,3.54,0,0,0,.3-1.1,10,10,0,0,0-.9-2.8c-.1-1.8-.5-2.6-1.3-2.3a7.09,7.09,0,0,0-.9-2.8q-1.05-1.65-1.8-.9c-1.2-1.8-2.4-2.6-3.4-2.3a3.23,3.23,0,0,0-.8-2.1,6.72,6.72,0,0,0-1-2.5q-.9-.3-1.2.9a7,7,0,0,0-.7-2.2A2,2,0,0,0,62,7.4a2.2,2.2,0,0,0-.8.1A2.66,2.66,0,0,0,59.9,7c-1.1-1.1-2-1.2-2.9-.3l-.1-1c-.3-1.2-.9-1.4-1.9-.8a14.76,14.76,0,0,0-3.9-3.1c-.9-.3-1.5-.2-1.8.2a3,3,0,0,0-1.5-.9c-.5-.1-1-.3-1.5-.4q-1,0-.9,1.2a5,5,0,0,0-2.3.6,1.17,1.17,0,0,0-.3,1.4,2.88,2.88,0,0,0,1.4,1.5,1.09,1.09,0,0,0-.2,1q0,.75,1.5,1.2a3.75,3.75,0,0,0,2.1,0A1,1,0,0,0,48.3,9a3,3,0,0,0,3.4.7l-.1.9,1.8.7a2.32,2.32,0,0,0,1.2,1.9l.7.3c-.2,0-.8.6-.8.7a.9.9,0,0,0-.1.9,2.19,2.19,0,0,0,.5.3c.3,0,.7.1,1,.1a5.65,5.65,0,0,0,1.3,0,4.71,4.71,0,0,0,.3.9,6.39,6.39,0,0,0,1,1.3,5.94,5.94,0,0,0,2.3,1.4,8.66,8.66,0,0,0-.5,1.2,4.3,4.3,0,0,0-.2,1.2,2.38,2.38,0,0,0,.3,1.2c-.1-.1-.6.3-.7.5-.6.9.7,2.2.9,2.6a3.29,3.29,0,0,0-.6.3,1.41,1.41,0,0,0,1,2.1,10.88,10.88,0,0,1,2.4,1.7,15.87,15.87,0,0,0,1.1,1.6c.3.4.6,1.1,1.4,1.1,0,.1.1.2.1.3a22.26,22.26,0,0,0,2.2,4.7c.1.1.1.3.2.4l.6.9a16.11,16.11,0,0,1,1.7,2.6,12.42,12.42,0,0,0-.1,1.5,26.08,26.08,0,0,1-.8,4.2c-1.3-.6-1.6.2-1.7,1.1,0,0-.6-.1-.7.2a.37.37,0,0,0-.1-.3.87.87,0,0,0-1.1-.4s-.4.3-.7.5c-.1.1-.2-.4-.2-.8a3.93,3.93,0,0,1,.1-1.5.35.35,0,0,0,.1-.2c.1-.2.3-.4.4-.6a6.21,6.21,0,0,0-.1-3.3l-.3-1.2a1.15,1.15,0,0,0-.7-.8c-.1,0-.8,0-.9.5,0-.3-.5-.5-.9-.6-1-.2-2.1,1.7-2,3.6a1.08,1.08,0,0,0-.7-.3.73.73,0,0,0-.9.9,2.84,2.84,0,0,0,.4,1.2c.7,1.4,1.9,3,2,3.9a1.2,1.2,0,0,0-2.1.8,4.42,4.42,0,0,0,.5,1.5c-.3,1.5,1.4,2.6,2.8,4,0,.6.1.7.3.9l.1.1c-.3.4-1.8,2.9-1.9,2.9s-1.2-.6-1.5-.3a4.36,4.36,0,0,0-.9,1.1l.2,1.7a3.05,3.05,0,0,1-1.2,2.4,7.38,7.38,0,0,0-1.8,2.5,3.82,3.82,0,0,1-1.8,1.8,2.75,2.75,0,0,0-.8-.9c-.1-.1-.2-.2-.4-.1a43.44,43.44,0,0,0-6.4,2.8,8.1,8.1,0,0,0-2.4,2.5H42.7a13.28,13.28,0,0,1-1.6-1.2c-.4-.3-1.1-.2-2.2.3a3.87,3.87,0,0,0-2.9.6c-.6.2-1,.3-1.3.1l-2.3-2.5q-7.2-3-7.8-2.7a2.34,2.34,0,0,0-1,1.2,7.05,7.05,0,0,1-2.1-1.8L20,65.2a3.92,3.92,0,0,1-1.3-3.4l.2-1.5a.75.75,0,0,0-.1-.5,2.79,2.79,0,0,0-1.3-.7c-.1,0-.3-.1-.5.7.1.2-1.5-2.1-1.5-2.1l.1-.1a10.65,10.65,0,0,0,1.5-3.2,19.89,19.89,0,0,0,.7-4.4c.1-.1.1-.2.2-.3a5.21,5.21,0,0,0,.9-2.3,20.48,20.48,0,0,0,.6-4.8c-.1-.5-.2-.8-.4-.8a.6.6,0,0,0-.4.1l.3-.6c.2-.4.2-.7,0-.8a2.46,2.46,0,0,0-1.7.3h0a9.94,9.94,0,0,0-.7-2.4c-.1-.1-.3,0-.3,0-1.3.8-1.9,2.5-2.4,4.7l-.4.3c-.4.5-.7,1-1.1,1.5a4.35,4.35,0,0,0-.4.7c-.5.9-1,1.8-1.4,2.7a10.27,10.27,0,0,0-.7,2.5,9.72,9.72,0,0,1-.7-1.9A2.79,2.79,0,0,1,9,47.2c.3-.4.2-.8-.2-1.2s-.7-1.7-1.2-4.2a10.27,10.27,0,0,1,.8-3,35.71,35.71,0,0,1,2.4-4.9c.1-.1.5-.6.7-.6s.4-.2.7-.4c2.2-1.7,7.1-8.5,7.4-12.6V19.2a7.35,7.35,0,0,0,1-1.6,24.87,24.87,0,0,0,1.5-2.8,9.77,9.77,0,0,0,.8-1.9l.4-.1.5-.2a40.36,40.36,0,0,0,4.1-1.9l1.9-1a16.76,16.76,0,0,0,3.8-2.3,4.94,4.94,0,0,0,2-3.4c-.2-.3-.9-.4-1.9-.5a2.83,2.83,0,0,0,.9-2c-.4-.6-1.6-.7-3.7-.3a16.81,16.81,0,0,0-5.6,2.5,19.72,19.72,0,0,0-4.4,3.8,21.87,21.87,0,0,0-3.1,4.6l.9-2.2a32.82,32.82,0,0,0,1.5-3.6c.2-.7.2-1.1,0-1.4s-.4-.4-.9-.2a8.55,8.55,0,0,0-2.7,2,24.69,24.69,0,0,0-3.8,5.4,44.82,44.82,0,0,0-2.3,5.1,8.5,8.5,0,0,0-.1-3.6c-.2-.4-.5-.5-1-.3a5.85,5.85,0,0,0-1.5,1.6c-.5.7-1,1.4-1.5,2s-1,1.6-1.7,2.7A28.15,28.15,0,0,0,3,23.8a29.9,29.9,0,0,0-1.1,6.5,17.45,17.45,0,0,0,.4,5.5,21.87,21.87,0,0,0,1.5,4.4c.5.9,1,1.5,1.4,1.6a22.63,22.63,0,0,1,1.1,3.4,3,3,0,0,1,.3,1.7c0,.4.1.7.3.8a3.49,3.49,0,0,1,.6.9,26.13,26.13,0,0,0,1.6,4.2,14.92,14.92,0,0,0-.2,2.1C7.4,50.5,6.2,47.3,5.2,45,3.4,41,2,39.1.9,39.5A1.5,1.5,0,0,0,0,40.9v2.2a24,24,0,0,0,.3,3.7A25,25,0,0,0,5.1,57.2l3.4,4a6.54,6.54,0,0,0,2,1.5,2.7,2.7,0,0,0,1.7.3,25.48,25.48,0,0,0,3,3.9c.8,1.2,1.5,1.7,2.3,1.6a1.58,1.58,0,0,0,1.6,1.1l.7-.1c1,.9,1.8,1.7,2.6,2.3l-.9,2.5c-1.6.2-3,.3-4.3.4-1.2-.9-2.9-2.1-5.2-3.6l-.1-2.8a3.59,3.59,0,0,1,.5-2.4q.15-.75-.9-1.5a4,4,0,0,0-2.2-.6.46.46,0,0,0-.3.5v1.5l-4.5.1a1.39,1.39,0,0,0-1,.5c-.3.3-.3.9,0,1.9v.9a12.77,12.77,0,0,1-1.7,3.7c-.1.2-.1.5.2,1A11,11,0,0,0,3.8,76a12.48,12.48,0,0,0,1.9,1.5,50.5,50.5,0,0,0,4.4,2.7,60.85,60.85,0,0,0,7.1,3.7c.5,0,3.6-.4,9.4-1.3v.5c-1.7,1.3-2.7,1.8-3.2,1.6-.7.1-.9.5-.6,1.5a1.37,1.37,0,0,0,1,.8l.6.7,1.7,1a3.08,3.08,0,0,0,1.9,0c.6-.2.9-.7,1.1-1.5l2.1-2.1,1.4-1A3,3,0,0,0,34.7,83c.1-.5.2-.8.4-.9L36.7,81c.1-.2.7.1,2,.8a2.15,2.15,0,0,0,1.6-.1l1.2-.7c1.1.3,3,1.6,5.8,4.1a1.35,1.35,0,0,0,.5,1c.2.3.8.5,1.8.7l.7,1.2.7.2a3.94,3.94,0,0,0,2.7-1l1-.3c.5-.4.8-.8.7-1.2l-.4-.4-.9-.2a16.31,16.31,0,0,1-3.4-2.2l-.8-.6a114.05,114.05,0,0,0,12.7,1.4,3.52,3.52,0,0,0,2.5-1c1-.8,4.2-3,9.5-6.8A9.72,9.72,0,0,0,76.5,73a4.44,4.44,0,0,1-1.2-1.9,7.35,7.35,0,0,1-.7-2.1,3.3,3.3,0,0,1,0-1.4,1.2,1.2,0,0,0-.4-1.2,1.42,1.42,0,0,0-1.1-.4,19.22,19.22,0,0,0-3.4,0c-.6-.1-.9-.2-1-.4V64.5c.1-.5,0-.7-.4-.7a5.53,5.53,0,0,0-2.5,1,1,1,0,0,0,0,1.4,1.61,1.61,0,0,1,.5,1.1c-.2,2.1-.4,3.5-.5,4.2a37.7,37.7,0,0,1-4.6,3.3,12.32,12.32,0,0,1-4.4-.3,3.81,3.81,0,0,1-1.1-2.3,27.87,27.87,0,0,0,2.5-1.7,5.41,5.41,0,0,0,1.5-.4q.6-.15.6-1.2a1.79,1.79,0,0,0,.9-1l2.7-3.3a4.8,4.8,0,0,1,2.9-1.3,11.33,11.33,0,0,0,4.9-2.1q.45-.45,0-1.5a12.42,12.42,0,0,0,2.9-2.9,2.75,2.75,0,0,0,.4-2.5,7.71,7.71,0,0,0,2.1-3.6,10.44,10.44,0,0,0,0-2.5,4.43,4.43,0,0,0,1.2-1,1.82,1.82,0,0,0,.4-1.1C78.7,46.7,78.5,46.3,78.2,46ZM53.6,10.7,52,10.2l.1-1.1-.9.2a2.37,2.37,0,0,1-2.5-.8c-.6.1-.8-.1-.7-.7s.2-.7-.2-.8l-1.4.1a2.1,2.1,0,0,1-1.7-.8c-.2-.3-.1-.7.4-1.2A3,3,0,0,1,43.5,4c-.2-.4-.1-.7.4-1a3.9,3.9,0,0,1,2.5-.1.91.91,0,0,1-.2-1.1q0-.6,2.4.6l.9.6a1,1,0,0,1,1.3-.4,13.24,13.24,0,0,1,2,1.2,13.68,13.68,0,0,1,2.1,2.1c.7-.4,1.1-.3,1.4.3l.1,1.1a1.83,1.83,0,0,0-2.5-.1l-.7-.3a7,7,0,0,1-1.6-2.5c-.2-.7-.3-.8-.3-.2a4.87,4.87,0,0,0,1.1,2.4,6.09,6.09,0,0,1-3-1.7c-.6-.7-1.1-1.3-1.5-1.7-.3-.6-.5-.6-.4,0a7,7,0,0,0,1.6,1.9,6.11,6.11,0,0,1-1.4-.7A9.68,9.68,0,0,0,45,3.6c-.3,0-.4.1,0,.2a14,14,0,0,1,2.7.9,7.17,7.17,0,0,1,1.1.7,6.46,6.46,0,0,1-2.7.5h-.8c.1.1.3.1.6.2a8,8,0,0,0,3.4-.4,22.28,22.28,0,0,0,3,1.3,7.22,7.22,0,0,0-2,.9c-.3.3-.1.3.4,0A4.47,4.47,0,0,1,53,7.2l.8.3a4.31,4.31,0,0,0,.6,2.6Zm3.7,4.5c-1.8,0-2.1,0-2.2-.3s-.1-.4.5-.7l.3-.5c-1-.5-2-1-2-2.3l.8-.3c.4-.4.4-.8,0-1s-.6-.8-.6-1.7c.3-.8,1.2-.8,2.5,0,.6-1.2,1.3-1.5,2.2-1a1.46,1.46,0,0,0-1.6,1.2,5.4,5.4,0,0,0,0,1.8,5.73,5.73,0,0,0-1.1-1.1c-.8-.4-1-.4-.5.1A20,20,0,0,1,57,11a3.24,3.24,0,0,1-2.3.8c-.3.1-.2.2.1.2a2,2,0,0,0,1.3-.1,3.81,3.81,0,0,0,.3,1.8,4.26,4.26,0,0,0,1.2,1.1C57.6,14.9,57.4,15,57.3,15.2Zm1,.9c0-.4.3-.6,1-.6s.8-.2.3-.6a4.61,4.61,0,0,1-2.3-1.6c-.4-.5-.4-.9,0-1.1L58,12l.3-.4L57.9,10a1.71,1.71,0,0,1,.7-1.8,3.14,3.14,0,0,1,2.5.8c0-.4.3-.6.9-.4s1.1,1.3,1.5,3.5l.8.3q.45-.9.6-.9c.3,0,.5.5.8,1.6a3.77,3.77,0,0,1,.9,2.8,4,4,0,0,0-.7,2l-.4-.8a13.86,13.86,0,0,1-.3-3c0-.4-.1-.4-.1,0a8.77,8.77,0,0,0,0,2.3,26.12,26.12,0,0,0-2.7-3,5.83,5.83,0,0,1-.2-2.3c-.1-.8-.2-.9-.2-.5a11.11,11.11,0,0,0,.1,2.6,23.67,23.67,0,0,1-2.5-3.1q-.45-.6-.3-.3a12.43,12.43,0,0,0,1.9,2.8c.7.8,1.2,1.3,1.6,1.8a10.43,10.43,0,0,0-2.1-.5,4.28,4.28,0,0,1-1.6-.5q-.75-.15,0,.3a4.3,4.3,0,0,0,1.7.5,8.47,8.47,0,0,1,2.4.8,6.69,6.69,0,0,1,1.6,1.9l.6,1.3a9.05,9.05,0,0,0-2.9-1,8.62,8.62,0,0,1-1.9-.5c-.8-.3-.9-.3-.3.1a5.14,5.14,0,0,0,2,.6,11.33,11.33,0,0,1,3.3,1.3l.1.3a1.16,1.16,0,0,0-.2,1l.3.9c-.3-.3-.7-.2-1.2.5a1.07,1.07,0,0,0-.1-1.1c-.4-.7-1.5-1.4-3.2-2.1l-.3.5A4.12,4.12,0,0,1,58.3,16.1ZM69.7,39.5c-.3-.5-.8-1.2-1.4-2.2A15.09,15.09,0,0,1,67,34.9a2.51,2.51,0,0,1-.1-1.9v-.2a4.65,4.65,0,0,1,.3-.9.76.76,0,0,0,.1-.4c.1-.3.1-.4,0-.2s-.1.2-.2.3c-.2.5-.4.9-.6,1.4v.1l-.9-2.5a3.45,3.45,0,0,1,.3-1.3,14.48,14.48,0,0,1,1.4-2.8c.3-.6.3-.6-.1-.1a11,11,0,0,0-1.6,3,3.09,3.09,0,0,0-.2.8l-.3-.8L64,26.9a9.42,9.42,0,0,1,1.1-3.4c.4-.9.3-.8-.3.1a11.2,11.2,0,0,0-1.1,2.6c-.1-.6-.3-1.1-.4-1.6-.2-.7-.4-1.4-.6-2l-.3-.9-.3-.1.1.4.1.1c.2,1.1.4,2,.6,2.9.1.4.3.8.4,1.2-.3-.2-.6-.5-.9-.7a6,6,0,0,0-1.1-.6c-.4-.2-.4-.2,0,.1a3.59,3.59,0,0,1,1,.7,10.63,10.63,0,0,1,1.1.9c.4.9.7,1.7,1,2.4a13.7,13.7,0,0,0-1.4-.8,11.64,11.64,0,0,0-1.5-.6c-.5-.1-.5,0,0,.2a11.88,11.88,0,0,1,1.6.8,6.23,6.23,0,0,1,1.2.9,1.38,1.38,0,0,1,.3.4l.9,2.5c-.3,0-.8-.5-1.4-1.6-.5-.9-1.6-1.7-3.5-2.5-.4-.2-.5-.5-.5-1,.1-.3.4-.5,1.1-.4a4,4,0,0,0-.7-1.3l-.4-.6c-.5-1-.2-1.6.9-1.6a1.9,1.9,0,0,1-.4-1.5v-.3a3.26,3.26,0,0,1,.4-1.4,4.87,4.87,0,0,0,.4-1.1c.6.3,1.1.6,1.6.9a1.51,1.51,0,0,1,.8,1.3l-.2,1.5c.1.3.3.2.7-.3s.7-.9,1-1a3.51,3.51,0,0,1,1,.8q.45.9-.3,3.3l-.5,1.3c1.1-1.4,1.9-2.1,2.6-2a1,1,0,0,1,.2,1,3.79,3.79,0,0,0,0,1.5,1.55,1.55,0,0,1-.5,1.4,3.8,3.8,0,0,0-.9,1.8c1-.7,1.4-.6,1.2.4l-.6,2c-.2,1,0,1.4.5,1.4s.8,0,.9.2a2.51,2.51,0,0,1,.1,1,4,4,0,0,0-.4,1.3.55.55,0,0,0,.3.5c.1.1.4.1.9-.1s.7-.1.7.4v1.4a2.84,2.84,0,0,0,.4,1.3,1.56,1.56,0,0,0,.8.6h0l.4-.5q-.9,0-.9-1.2v-2c-.3-.6-.5-.9-.8-1s-.8-1.6-1.7-4.7h1c.7,2.6,1.3,4,1.7,4.3s.6.4.6.7a7.07,7.07,0,0,0,.2,1.7c.6-.2.9-.7,1-1.6a1.76,1.76,0,0,0-.7-1.9c-.7-.4-1-.7-1.1-1a.68.68,0,0,1,.6-1c.3-.2-.5-.9-2.5-2.3-1-.7-1.3-1.4-.9-1.9.2-.3.4-.3.9,0s.7.4.8.2c.2-.4,0-.7-.5-.9s-.8-.4-.8-.6v-2a2.63,2.63,0,0,0-.1-1.2c-.3-.5-1-.5-2,.1a2.85,2.85,0,0,0,.2-1.6,5.07,5.07,0,0,0-.7-1.5l-.5-1.5c-.1-.5.2-.8.8-1a3.59,3.59,0,0,1,0-2.1,9.74,9.74,0,0,0,.5-1.1c.1-.3.4-.3.8-.1s1.2,1,2.3,2.5q.75-.9,1.5.6a4.63,4.63,0,0,1,.7,3.1c1.2-.6,1.6-.2,1.2,1.3a9.19,9.19,0,0,1,.9,2.4,2.22,2.22,0,0,1-.3,1.6,2.38,2.38,0,0,0-.4,1.2q0,.45.3,0a2.23,2.23,0,0,1,1.2-.7c.4.9.6,1.5.5,1.7a1.74,1.74,0,0,1-.6,1.1,2.13,2.13,0,0,0-.7,1.5c0,.3.1.4.4.4l.8-.2c.4-.1.5.3,0,1a18.94,18.94,0,0,0-1,2.1,4.41,4.41,0,0,0-.3,1.4,1.8,1.8,0,0,1-.4,1.3,13.13,13.13,0,0,0-.1-2.8,23.26,23.26,0,0,0-.6-3.3,7.66,7.66,0,0,0,1-2.2c.2-.6.2-.7-.1-.2a3.53,3.53,0,0,1-1,1.7c-.3-1.2-.7-2.6-1.1-4.2a6.63,6.63,0,0,0,.9-3c0-1,0-1.1-.2-.2a6.57,6.57,0,0,1-1,2.8,31.92,31.92,0,0,0-1.3-3.7,8.22,8.22,0,0,0,.2-2.3c0-.9-.1-.9-.2-.1a7.93,7.93,0,0,1-.2,1.7l-1-2.6-.7-1.5c-.2-.5-.3-.5-.2,0l.6,2a13.1,13.1,0,0,0-1.3-1.2c-.4-.3-.5-.2-.2,0a10.71,10.71,0,0,1,1.8,1.9c.4,1,.8,2,1.2,3.1a8.14,8.14,0,0,0-2.5-1.7q-.9-.3,0,.3a17.64,17.64,0,0,1,3,2.8c.4,1.1.7,2.2,1.1,3.2A8.07,8.07,0,0,1,70,26c-.4-.4-.4-.3,0,.2a15.46,15.46,0,0,0,2.4,2.7l.7,2.9a17.07,17.07,0,0,0-2.8-2.2c-.5-.3-.5-.3-.1.2A13.58,13.58,0,0,1,73.3,33a14.45,14.45,0,0,1,.4,4.8c0,.6-.5,1-1.3,1.3v.1l-.2,2.2H71A15.62,15.62,0,0,0,69.7,39.5Zm1.6,2.2a3.28,3.28,0,0,1,1,0c-.4,2.4-.9,5-1.3,6.6l-.7-.4A34.18,34.18,0,0,0,71.3,41.7ZM62.9,55.1c-.2-.1-.7-.6-1.6-1.3s-1-1.3-.7-1.9a8.79,8.79,0,0,1-.6-1,1.1,1.1,0,0,1,.1-1.1c.3-.4.8-.2,1.7.5a2,2,0,0,0,0-1.5,8.43,8.43,0,0,0-.6-1.4A10.46,10.46,0,0,0,60,45.5a2.3,2.3,0,0,1-.3-.9.37.37,0,0,1,.1-.3h0c.2-.1.5,0,.9.4.8-.8,1.3-1.1,1.5-.7a3.8,3.8,0,0,1,.6,1.8,5.7,5.7,0,0,1,0,2.6l-.2.2.2.2a6.36,6.36,0,0,1-.2,2.1,1.85,1.85,0,0,0,.2.7h0a1.07,1.07,0,0,1,0-.8,4.55,4.55,0,0,1,.3-1.1,6.47,6.47,0,0,0,.3-1c0-.1,0-.1-.2-.2.3-.1.3-.2.4-.4a.45.45,0,0,0,0-.5c0-.2-.1-.7-.1-1.5a9.2,9.2,0,0,0-.2-1.9,6.21,6.21,0,0,0-.3-1c0-.2-.2-.4-.6-.4s-.8.3-1.5,1a10.3,10.3,0,0,1,.9-2.7c.3-.5.6-.6.9-.4a1.7,1.7,0,0,1,.6.6c.1.2.2.2.4-.1s.3-.4.5-.3a1.54,1.54,0,0,1,.4.6l.3.9a15.94,15.94,0,0,1,.2,1.7v.2a2.65,2.65,0,0,1-.3,1.4.1.1,0,0,1-.1.1,1.28,1.28,0,0,0-.4,1c.1,1.6.2,2.4.4,2.4s.4-.1.7-.4a.83.83,0,0,1,.7-.3q.3.15.3.9v.4c0,.8.1.9.2.3s.4-1,.7-1,.4.9.2,2.7a20.2,20.2,0,0,0-2.6,2.7,2.1,2.1,0,0,1,0-1.6,11.73,11.73,0,0,0,.5-1.1c.1-.4.3-.7.4-1.1a.35.35,0,0,1,.1-.2c.2-.5.1-.5-.2,0v.1a9.25,9.25,0,0,0-.5,1,2.18,2.18,0,0,1-.5.8c-.1-.4-.2-1.1-.4-2a1.42,1.42,0,0,0-.2-.6c-.3-.9-.4-.9-.2,0a4.33,4.33,0,0,0,.1.5c.2,1.3.3,2.5.4,3.7-.5-.6-1.1-1-1.6-1.5-.1-.1-.3-.2-.4-.3-.4-.3-.7-.7-1.1-1s-.4-.2-.2.1a6,6,0,0,0,1.1,1.2l.6.6a14.35,14.35,0,0,1,1.3,1.3.86.86,0,0,1,.3.6,10.59,10.59,0,0,1-1,1.2c-.1,0-.1-.1-.2-.2a.76.76,0,0,1-.2-.5C63.2,55.5,63.1,55.3,62.9,55.1Zm-2.5,4.7c.4,0,1,.2.8.5s-.3.9-.6.9-.9-.4-.9-.8S60,59.8,60.4,59.8ZM46.1,72.3a9.83,9.83,0,0,1,1.5-1.2,35.3,35.3,0,0,1,5.3-2.3c.2-.1.3,0,.4.1l.4.5-.6.3a1.25,1.25,0,0,1-1.2.3,3.73,3.73,0,0,0-1.6.4c-.7.3-1.1.7-1.1,1.2a1,1,0,0,1-.5.7c-.7.4-1.3.7-1.9,1l-1.5-.1Zm3.8.3a1,1,0,0,1,.6-1.3,2.35,2.35,0,0,1,1.6-.5c.3,0,.3.5,0,1.4-.2.4-1.1,1-2.8,1.6l-1.6-.2,1.6-.9.4.7h.2Zm-9.1.2.5.4-1-.5Zm-16-4.1a1.21,1.21,0,0,1,1,.1l2.3,1.1L32,71.4a13.72,13.72,0,0,1,1.7,2.1,19.48,19.48,0,0,1-2.5.2l-2-1.4q-1.2-1.5-1.8-2.1c-.4-.4-.7-.8-1.1-.9a1.52,1.52,0,0,0-1.2-.3,1.74,1.74,0,0,0-.7.9l-.1-.1C24.3,69.1,24.5,68.8,24.8,68.7Zm2.2,2a1.48,1.48,0,0,1-1.3,0l-.8-.6c.3-.6.6-.8,1-.6l.8.7ZM18.8,44.2c-.1.9-.2,1.9-.4,3-.1.7-.3,1.5-.5,2.3a23.85,23.85,0,0,0-.2-3.5l.2-.6.2-.6c0-.4,0-.4-.2,0l-.1.2-.2.3v-.9l.1-.1.6-.8C18.7,43,18.9,43.2,18.8,44.2Zm-.7-2.5c.4-.1.5.1.2.6l-.9,1.3c0-.3-.1-.7-.1-.9a.9.9,0,0,0-.1-.5A2.77,2.77,0,0,1,18.1,41.7Zm-3.7,2.2c.7-2.6,1.3-4,1.9-4.1a24.37,24.37,0,0,1,.8,5.1,36.21,36.21,0,0,1,0,6.6c-.3,2.5-.7,4.2-1.3,5.1l-.6,1.3V53.1c0-1.2.1-2.8.1-4.9s.2-4.3.4-6.9c.1-.6.1-.8-.1-.4a62.42,62.42,0,0,0-.9,10v3.9l-.1,2.4v.1l-.6-.7a.37.37,0,0,0-.1-.3c0-.2-.1-.3-.1-.5a29.61,29.61,0,0,1-.4-5.2v-.8C13.7,47.9,13.9,45.9,14.4,43.9Zm-4.2,7.8a7.62,7.62,0,0,1,.6-2,21,21,0,0,1,2.9-5.2,14.54,14.54,0,0,0-.5,2.9c-.6,1.1-1.2,2.2-1.7,3.3A37.25,37.25,0,0,0,10,54.5c-.2.7-.3,1.6-.5,2.6A26.41,26.41,0,0,1,10.2,51.7Zm3.1,4-1-1.3.8-1.9A11.73,11.73,0,0,0,13.3,55.7ZM34.7,5a3.12,3.12,0,0,1-1.1,2,22.54,22.54,0,0,1-4.1,2.8c-1.6.8-3.8,1.8-6.4,3v-.3A78,78,0,0,1,32,6.7c.7-.4.7-.6-.2-.4-.9.5-2,1-3.1,1.7-1.9,1.2-3.7,2.4-5.5,3.6V11c3.6-3.1,6.5-5.2,8.8-6.1A7.71,7.71,0,0,1,34.7,5ZM24.1,6.2a19.86,19.86,0,0,1,6.1-3.3,8.84,8.84,0,0,1,3-.4c.4.1.5.3.3.7l-1,1.4a9.07,9.07,0,0,0-3.7,1.6,34.6,34.6,0,0,0-5.1,3.6l-.7.4c-.3-.3-1-.1-1.9.3A69,69,0,0,1,28.6,5,8.11,8.11,0,0,0,31,3.5a13.1,13.1,0,0,0-2.9,1.3A68.29,68.29,0,0,0,21.9,9l-2.8,2.5A32.22,32.22,0,0,1,24.1,6.2Zm-2.9,5.2c.5-.3.8-.4,1-.3a2.52,2.52,0,0,1,.1,1.3,23.76,23.76,0,0,1-1.2,3.5l-.4.7-.6,1.1-.8,1.6A6.74,6.74,0,0,0,15.8,21c.6-1,1.2-2.1,2-3.3s2-3.1,3.7-5.6c.3-.5.3-.6,0-.4a15.06,15.06,0,0,0-2.1,2.7,77.12,77.12,0,0,0-4.6,7.3,2.19,2.19,0,0,0-.3.5c0,.1-.1.1-.1.2s-.1.2-.2.3-.1.1-.1.2-.1.1-.1.2-.1.1-.1.2-.1.2-.2.4-.1.1-.1.2-.1.1-.1.2-.1.1-.1.2-.1.1-.1.2-.2.3-.3.4-.1.2-.2.3-.2.3-.3.4h0c-.1.2-.2.3-.3.5s-.1.2-.2.3-.1.2-.2.3a4.35,4.35,0,0,0-.4.7.1.1,0,0,1-.1.1c-.1.1-.1.2-.2.3s-.6.3-1.4.3L8.1,32.7c.1.2.5.1,1.2-.2a1.81,1.81,0,0,1-1.4,1l-.4-.3-.2-.7v-.4h.4l1.6-4.2-1-1.2.2-.7c.3.7.6,1,.9,1.1.4-.8,1.1-2,1.9-3.5a37,37,0,0,1,2.9-4.4v-.4q0-.3.3,0l2.3-3.4-1.9,3.3c.3.3.2.6-.4.7a38.36,38.36,0,0,0-4.6,7.9l.5.1c.3.1.5,0,.8-.4l2.9-5.1,2.7-5.1A17.53,17.53,0,0,1,21.2,11.4ZM11,28.2a15.54,15.54,0,0,0-1.5,3.3H9.1l1-3.1ZM8.9,33.3,8,35.8,7.3,38l.2-1.9.3-1.4.3-1.4ZM7.3,31.1a22.29,22.29,0,0,1,.9-3.9l.4.5Zm6.9-16.9a23.62,23.62,0,0,1,2.3-3.7c.3-.7.1-.7-.5,0a55.39,55.39,0,0,0-5.4,9.1l.9-2.3c.2-.5.7-1.6,1.5-3.4a19.32,19.32,0,0,1,2.5-4.2c.8-1,1.4-1.7,1.7-2a5.57,5.57,0,0,1,2-1.4c.2.1.2.3.1.6L17,12.8a66.17,66.17,0,0,1-5.9,9.1,17.67,17.67,0,0,0-1.9,2.2,2.36,2.36,0,0,0-.6.9l.2-.8.9-1.4A64.26,64.26,0,0,0,14.2,14.2ZM7.9,48.5a2.87,2.87,0,0,0-.2-1.2,2.56,2.56,0,0,1-.4-.9c-.1-.4-.4-1-.6-1.9a12.3,12.3,0,0,1-.6-2.2h0a3.36,3.36,0,0,1-1.8-1.9,29.67,29.67,0,0,1-1.1-3.5,20.33,20.33,0,0,1-.4-5.2,49.81,49.81,0,0,1,1-6.9,22.24,22.24,0,0,1,4.8-8.9c.5-.6.9-.7,1-.4a21.6,21.6,0,0,1,0,3.6A15.51,15.51,0,0,1,8.7,23a84.53,84.53,0,0,0-2.2,8.2c-.5,1.7-1,3.8-1.6,6.5-.3-1.3-.1-4,.4-8.1s1.2-7.1,2.1-8.8c.4-.9.4-1,0-.4q-2.85,5-3.3,14.4a15.11,15.11,0,0,0,.4,4.8c.3,1,.7,1.6,1.1,1.7a.85.85,0,0,0,.7,0c.2-1.2.3-2.2.4-2.9s.1-1.6.3-2.6a8.34,8.34,0,0,1,.6-2.5l.2.2a18,18,0,0,0-.5,3c0,.6-.1,1.1-.1,1.7s-.1,1.6-.2,3.2c.4-1.3.8-2.5,1.2-3.7l1.5-4.2,1.3-3,.6-1.4h0c.2-.4.4-.7.6-1.1a2.19,2.19,0,0,1,.3-.5l.3-.6a.1.1,0,0,1,.1-.1c.1-.2.2-.3.3-.5s.3-.5.5-.8l.6-.9a.22.22,0,0,1,.2-.2c.5-.7.9-1.4,1.5-2.1a6.47,6.47,0,0,0,.8-.9l.3-.3.1-.1.2-.2c.1,0,.1-.1.2-.1l.1-.1c.1-.1.2-.1.3-.2s.1-.1.2-.1.1,0,.2-.1h.4a1.45,1.45,0,0,1,.1,1h0v.6h0v.1h0A14.49,14.49,0,0,1,17.8,25s-.1,0,0,.1c-.1.1-.1.2-.2.3v.1l-.3.6c-.1.1-.1.2-.2.3s-.3.4-.4.6c-.3.4-.5.8-.8,1.2-.1.1-.1.2-.2.3s-.2.2-.2.3a7961314590657,7961314590657,0,0,0-.2.2c-.1.1-.1.2-.2.3s-.1.2-.2.3-.2.2-.2.3-.2.2-.2.3-.2.2-.2.3h0a.78.78,0,0,1-.4.4,4.35,4.35,0,0,0-.6.7c-.1.1-.2.3-.4.4h0c-.1.1-.2.3-.4.4l-.3.3h0l-.3.3h0a.1.1,0,0,0-.1.1l.1-.1,2.4-3.9-.7-.1v.1c-.1.1-.1.2-.2.3s-.1.2-.2.3c-.4.6-.7,1.1-1,1.6-.1.1-.1.2-.2.3s-.1.2-.2.3-.1.2-.2.3l-.3.6a.1.1,0,0,1-.1.1c-.6,1.2-1.2,2.4-1.8,3.4a17.29,17.29,0,0,0-1.2,2.5C8,39.4,7.6,40.5,7,42a12.58,12.58,0,0,0,.6,2.4,7.18,7.18,0,0,0,1,2.4.52.52,0,0,1,.1.8A2.67,2.67,0,0,0,8.9,49,16.91,16.91,0,0,0,10,52.1l-.1.5A9.28,9.28,0,0,1,7.9,48.5ZM6.3,34.6c-.3,2.5-.6,4.5-.8,5.9l-.2-.4C5.2,39.8,5.5,37.9,6.3,34.6ZM21.2,69.8l-.6-.8a.59.59,0,0,0-.8-.1c-.3.1-.6-.1-.8-.6-.8.5-1.7.3-2.6-.6l-1.6-1.9-1.5-2.5-.5-.4h0a.1.1,0,0,0-.1.1c-.1,0-.1.1-.2.1h0a1.27,1.27,0,0,1-.6.1h-.2L9.8,62A26.27,26.27,0,0,1,7,57.2,85.79,85.79,0,0,1,3.1,49c-.5-1.5-.8-2.5-1-2.9s-.2-.4-.2,0a14.74,14.74,0,0,0,.7,2.6c.4,1.4,1.3,3.4,2.4,6,1,2.1,2.1,4.1,3.1,5.8a29.78,29.78,0,0,1-5-7,31,31,0,0,1-2.1-6,11.52,11.52,0,0,1-.3-3V42.2c.2-.5.4-.7.7-.6s.6.4,1.3,1.3a25.29,25.29,0,0,1,2.7,6A55.79,55.79,0,0,1,7.5,55a25,25,0,0,0,.8,2.5,21.4,21.4,0,0,0,1,2.2A6.49,6.49,0,0,0,11,62c.1.1.2.1.3.2s.1.1.2.1a.1.1,0,0,1,.1.1.1.1,0,0,1,.1.1h.7a39806572953305.67,39806572953305.67,0,0,0,.2-.2l-1.3-2.6c-.2-.5-.2-.9-.6-.8l.2.3a.45.45,0,0,0-.5,0h-.2a.37.37,0,0,1-.3-.1c-.1,0-.1-.1-.2-.1l-.1-.1v-.1a.1.1,0,0,0-.1-.1v-.4h0V58c.1-.6.3-1.5.6-2.9.1-.2.1-.4.2-.5s.1-.2.1-.3.1-.2.1-.3.1-.4.2-.6.1-.4.2-.5h0c0-.1.1-.2.1-.3s.1-.2.1-.3h0c.1-.2.1-.4.2-.5a1.69,1.69,0,0,0,.2-.5,1.69,1.69,0,0,0,.2-.5h0l.3-.6.3-.6h0a.1.1,0,0,1,.1-.1h0v-.1c.1-.1.1-.2.2-.3a2.51,2.51,0,0,1,.4-.7,15.41,15.41,0,0,0-.2,1.9v.6a53.46,53.46,0,0,0-2.5,6.3c-.3,1.2-.3,1.7,0,1.7l.4-.2-.3-.7.2-.5.6,1,.3-.2.3.4-.3.4,2.1,3.1.5-.4.4.4c-.6.6-.9,1-.8,1.2a22.16,22.16,0,0,0,1.6,2.5c.9,1.4,1.7,1.8,2.3,1.2.2-.2.4-.1.7.1a3.35,3.35,0,0,1,.9,1.4V67.5l-1.7-1.6-1-2a21.12,21.12,0,0,1-1.7-2.7c-.3-.6-.8-1.4-1.3-2.3s-1.2-1.9-1.9-3l.1-.5,1.5,1.8A40.68,40.68,0,0,1,16,61.1c.5.9.9,1.1,1,.6l.3-.9.4.2-.3,1.8-.1.6c0,.4.1.7.3.8a1.25,1.25,0,0,1,.5.9A7,7,0,0,0,19.6,67a16.22,16.22,0,0,0,2.8,2.5c1,.7,1.8,1.2,2.4,1.6s.9.8.9,1.2l.9.2-.2-1.1.6-.1a2,2,0,0,1,.7,1q1.2.9,2.1,1.5l-2.1.4-3.5-2.1Zm-8.6-11,.3-.3,1.3,2.2-.1.3Zm2.2,4.5.5-.7,1.2,1.7.7,1.3.2.7a2.59,2.59,0,0,1-1.1-1l-.8-1ZM25.6,74.6l-2.8.5.7-1.9Zm6.7,8.8a34.18,34.18,0,0,1-4.5,3.7l-.6-.2c1-.6,2.3-1.6,4.1-2.9l.8-.9h-.4c-.6.5-1.3,1.1-2,1.6S28,85.8,27,86.3l-1.4.7.2.3,1,.1c.6.4.8.8.8,1.1-.3.5-.8.5-1.5.2L25,88.1a2.8,2.8,0,0,0-1.2-.8l-.5-.4.2-.5,1.4.6h.4l-.2-.8,1.7-1c.4-.2.6-.4.6-.8l.1-.8a3.26,3.26,0,0,0,2.3-.4,7.28,7.28,0,0,1,2.4-.7C32.9,82.6,32.8,83,32.3,83.4Zm-1.1-2c-1.6.4-3.1.7-4.4,1-3.3.6-6.5,1.1-9.7,1.5a45,45,0,0,1-7-3.6,41.07,41.07,0,0,1-5.8-4C3,75,2.5,74.1,2.8,73.9a11.09,11.09,0,0,0,1.6-3.6,1.86,1.86,0,0,0,.1-1c-.3-1.1-.1-1.6.7-1.6a33.13,33.13,0,0,1,4.2-.1.6.6,0,0,0,.6-.3l.7-1.4-.4-.2-.6.9V65.5c0-.2.1-.2.3-.1,1.3.3,1.9.8,1.8,1.3a4.65,4.65,0,0,0-.6,2.3v2.4a30.9,30.9,0,0,0-5.4-2.9c.2,0,.5-.1.7-.1a.6.6,0,0,0,.6-.3c.1-.2-.1-.3-.5-.3a6.57,6.57,0,0,0-1.9.2.53.53,0,0,0,.1.8,64.21,64.21,0,0,1,6,3.4q4,2.55,6.3,4.2a44.82,44.82,0,0,0,6.2-.6l4-.8c1.7-.3,3.4-.6,5.2-.8A16.86,16.86,0,0,1,35,74a24.58,24.58,0,0,0,2.8-.2,14.37,14.37,0,0,1,1.5,4c.1.6,0,.9-.2,1A52.78,52.78,0,0,1,31.2,81.4Zm12-1.5-.2-.7-1.3,1.6-1,.7a1.84,1.84,0,0,1-1.5.5l-1.6-.8.8-.4.2.2c-.2.5,0,.4.6-.2l1.5-1.4a7.67,7.67,0,0,0-.6-3.3A17.86,17.86,0,0,0,39,73.6c-.1-.3-.8-.3-2.2-.2a4.07,4.07,0,0,1,2.9-.1l1.1.5.6-.3.3.3a13.74,13.74,0,0,1,2.7,3.5,3.67,3.67,0,0,1,.1,1.8C43.9,79.8,43.5,80.1,43.2,79.9Zm5.2,6.7c-.3-.2-.4-.4-.2-.7l.9.8A.62.62,0,0,1,48.4,86.6Zm6.1.1.5.1-.2.2-1.2.4a3.38,3.38,0,0,1-1.9.9l-.8-.1-.2-.6a1.34,1.34,0,0,1,.7-.6,10.38,10.38,0,0,1,1.2-.3l1.1.2Zm-1.8-.6a2.75,2.75,0,0,0-1.6.3h-.7a24.56,24.56,0,0,1-2.2-1.7L46,83a5,5,0,0,1,2.6.2Zm6.7-9.5a6.65,6.65,0,0,0,2.1-.1,24.69,24.69,0,0,0,5.2-3.9,36.83,36.83,0,0,1,6.4-4c.5-.3.6-.5.1-.7a11,11,0,0,0-2.2-.2c-.3.3-.3.5.1.6a2.22,2.22,0,0,1,.9.1,35,35,0,0,0-5.3,3.3c.1-.7.2-2,.3-3.7a2,2,0,0,0-.6-1.5c-.2-.3.1-.6.9-.8l.7-.2v1l-.9-.2.1.5a1.53,1.53,0,0,0,1,.7l2.5.1h1.1c1.3,0,2,.4,1.9,1a9.15,9.15,0,0,0,.1,1.7,10.76,10.76,0,0,0,1.6,3.9,7.49,7.49,0,0,1-1.2,2l-2.4,1.6c-2.1,1.5-4.9,3.5-8.5,5.9a53.9,53.9,0,0,1-9.3-.6,55.36,55.36,0,0,1-9-2l-.8-.2.3-.3a12.83,12.83,0,0,0,.9-1.4,6.43,6.43,0,0,0-.2-1.6,7.38,7.38,0,0,0-1.8-2.9v-.3l.7-.1a25.82,25.82,0,0,1,5.2.8,48.17,48.17,0,0,0,5.4,1C57.1,76.3,58.5,76.5,59.4,76.6Zm-3.5-1.3c-.8-.1-2.1-.4-3.9-.7l1.6-.6q1.35.3,1.5-.6A3.67,3.67,0,0,0,55.9,75.3Zm9.8-13.8a2.32,2.32,0,0,0-.6,2.2,9.64,9.64,0,0,0-2.5,2.1c-.8.9-1.4,1.7-1.9,2.3a2.56,2.56,0,0,1-1.3,1.1c-.5.3-1.1.1-1.8-.4L57.4,70l-3.1,1.9-1.5.7A5.14,5.14,0,0,0,53,71l.6-.5c2.2-1.1,3.4-2.2,3.8-3.1a10.13,10.13,0,0,1,1.4-2,4.53,4.53,0,0,0,1.1-1.9V62.4l-.1-1.2c.5.6,1,.7,1.4.4.7-1.2,1.4-2.4,2.1-3.4s1.6-2,2.4-2.9,1.6-1.7,2.2-2.3v1.2a34.64,34.64,0,0,0-3.5,4.7,29.63,29.63,0,0,0-3.2,5.7,4,4,0,0,1-1.5,1.9,3.47,3.47,0,0,0-1.1.8c-.2.4-.1.5.4.3a6.07,6.07,0,0,1,1-.7c.7-.3,2.2-2,4.4-4.9V60.4l.5-.9c0,.9,0,1.4.2,1.5s.4-.2.8-.8,1.1-2.3,2.4-5.1a2.79,2.79,0,0,0,0,2.2q-1.2.75-.6,2.7ZM76.3,51.1a4,4,0,0,1-.8,2c-1.3,1.5-1.8,2.3-1.6,2.6a1.85,1.85,0,0,1-.2,2A33.63,33.63,0,0,1,71,60.5c.3.6.1,1.2-.7,1.6a20.81,20.81,0,0,1-3,1.3,10,10,0,0,0,3.8-4.9,6.73,6.73,0,0,1,1.7-1.2c.4-.3.5-.4.2-.4a8.11,8.11,0,0,0-1.8,1A16.26,16.26,0,0,0,72.5,54a11.2,11.2,0,0,0,2.3-2.8c.4-.7.5-.8,0-.4a11.91,11.91,0,0,1-2.2,2.5c.4-1.3.8-2.9,1.2-4.5.2-1,.1-1.1-.1-.5l-.5,1.6a3.47,3.47,0,0,0-.8-1.5l.6,2a16.76,16.76,0,0,1-.9,3.3,12,12,0,0,0-1.7-3.4q-1.05-1.2-.3,0a14.35,14.35,0,0,1,1.8,4.1,20.87,20.87,0,0,1-1.3,3.8A3.4,3.4,0,0,0,69.4,57q-.45-.3,0,.3a10.59,10.59,0,0,1,1,1.2,9.74,9.74,0,0,1-1.5,2.4,9.37,9.37,0,0,1-1.8,1.7,5.27,5.27,0,0,0,.8-3.9q0-.45.6-.6c.4-.2.5-.3.4-.5a4.66,4.66,0,0,1-.5-1.6,2,2,0,0,1,1.1,0c.4-.3.4-.7-.1-1.2a3.69,3.69,0,0,1-.9-2.2c0-.6.4-.8,1.1-.6.3,0,.4-.4.1-1.2l-.8-1.1c-.6-1.3-.3-1.7.7-1.4l1.2.8c.8.3,1.2-.2,1.2-1.6,0-.3.2-.4.7-.2s.9-.2,1.3-1.1q.6-.6.9,1.2c-.1,1.7.3,2.4,1.2,2.3C76.4,49.8,76.4,50.3,76.3,51.1ZM77.7,47a1.08,1.08,0,0,1-.2.8,1.87,1.87,0,0,1-1.1.5l-.5-.9a3.16,3.16,0,0,0-.8-2.2,4.37,4.37,0,0,1,1-.6c.3-.2.3-.2-.2-.1a3.37,3.37,0,0,0-1.2.4h-.1A8.64,8.64,0,0,1,76,42q.3-.6-.3,0a13.77,13.77,0,0,0-1.4,2.4,1.88,1.88,0,0,1-.4-1q-.15-.9-.3,0A5.29,5.29,0,0,0,74,45c-.7,1.1-1.2,1.5-1.6,1.3.3-1.5.6-3.1,1-4.7.7-.7,1.3-1,1.9-.7.8-.6,1.4-.7,1.9-.3a2.5,2.5,0,0,1,.4,1.4,3,3,0,0,1-.5,1.5c.6,0,.9.2.9.7a3.89,3.89,0,0,1-1.5,2.3C77.3,46.5,77.6,46.7,77.7,47Z"/><path class="cls-1" d="M33.5,80.1a2.27,2.27,0,0,0,1.2-.6l.2.3-.2-1.6-.1.1c0,.8-.2,1.5-.9,1.7-1.1.1-1.5-.9-1.7-2s0-2.3,1-2.4a1.37,1.37,0,0,1,1.4,1.1h.1l-.2-1.4h-.1v.3a1.81,1.81,0,0,0-1.3-.2A2.11,2.11,0,0,0,31.3,78a1.88,1.88,0,0,0,2.2,2.1"/><path class="cls-1" d="M46,75.5v.2c.2,0,.4.1.4.3s0,.6,0,.8l-.3,2a1.88,1.88,0,0,1-.2.8c-.1.2-.3.2-.5.2v.1a2.2,2.2,0,0,0,.8.1c.3.1.5.1.8.2V80c-.2,0-.4,0-.4-.3a2.49,2.49,0,0,1,.1-.8l.2-2c.1-.2.1-.6.2-.8s.4-.2.5-.2l.1-.1c-.3,0-.6-.1-.9-.1a3.09,3.09,0,0,1-.8-.2"/><path class="cls-1" d="M29.6,76.5c0,.2.1.6.1.8l.3,2c0,.2.1.6,0,.8s-.2.3-.4.3v.1a2,2,0,0,0,.8-.1h.8v-.2c-.2,0-.4,0-.5-.2a1.88,1.88,0,0,1-.2-.8l-.2-2a2.2,2.2,0,0,1-.1-.8.54.54,0,0,1,.4-.3V76c-.2,0-.5.1-.8.1a2.49,2.49,0,0,0-.8.1l.1.1a.65.65,0,0,1,.5.2"/><path class="cls-1" d="M6.8,73.3a1.17,1.17,0,1,0,1.2-2,2.18,2.18,0,0,0-.5-.4,7,7,0,0,0-.9-.6v.2c.1.1.3.2.2.4a4.23,4.23,0,0,1-.5.7L5.2,73.2a2,2,0,0,1-.6.7c-.2.1-.3,0-.5-.1l-.1.1a1.79,1.79,0,0,1,.7.5c.2.1.4.3.6.4l.1-.1c-.2-.1-.3-.2-.3-.4s.4-.6.5-.8l.5-.6c.2.2.2.2.2.5l-.1,1.7-.1.5c.1.1.3.1.4.2l.3.3.1-.1c-.2-.2-.2-.3-.2-.6Zm-.6-.6.9-1.3c.1,0,.1-.1.2-.1a1.44,1.44,0,0,1,.3.2c.3.2.3.7,0,1.2-.5.7-.8.4-1.4,0"/><path class="cls-1" d="M25,79.3a1.08,1.08,0,0,0-.8-.2,1.06,1.06,0,0,0,.7-1.2c-.1-.8-.9-.9-1.5-.8-.2,0-.4.1-.6.1a2.2,2.2,0,0,0-.8.1v.1c.2,0,.4,0,.5.2a1.88,1.88,0,0,1,.2.8l.2,2c0,.2.1.6.1.8s-.3.3-.4.3v.2a2.92,2.92,0,0,1,.9-.2c.2,0,.5,0,.6-.1a1.68,1.68,0,0,0,1.1-.3,1.42,1.42,0,0,0,.4-1.1,1.87,1.87,0,0,0-.6-.7m-1.8-1.8a.49.49,0,0,0,.3-.1c.4,0,.6.2.7.7a1.08,1.08,0,0,1-.2.8c-.1.1-.3.1-.5.2h-.1l-.2-1.4Zm1.1,3.8c-.2,0-.4,0-.5-.2s-.1-.5-.2-.7l-.1-.9h.2a1.63,1.63,0,0,1,.7,0,1,1,0,0,1,.4.8.78.78,0,0,1-.5,1"/><path class="cls-1" d="M26,81.1v.1a29.31,29.31,0,0,0,2.9-.5h.3l-.1-1.3-.2.1a1.08,1.08,0,0,1-.2.8c-.2.2-.5.2-.7.3-.7.1-.9-.1-1.1-.9l-.2-2c0-.2-.1-.7-.1-.9s.3-.2.5-.2l-.1-.2a2,2,0,0,1-.8.1,2,2,0,0,1-.8.1l.1.2a.35.35,0,0,1,.5.1c0,.2.1.7.1.9l.3,1.9a2.72,2.72,0,0,1,0,.9c0,.4-.2.4-.4.5"/><path class="cls-1" d="M21.7,79.8a2,2,0,0,0-.8-.1,1,1,0,0,0,.6-1.2,1.16,1.16,0,0,0-1.5-.9,1.48,1.48,0,0,1-.7.1,1.7,1.7,0,0,1-.7.1V78c.2-.1.4-.1.5.1s.1.7.1.9l.3,1.9c0,.2.1.7.1.9s-.3.2-.5.3v.1c.4,0,.6-.1,1.1-.1a1.48,1.48,0,0,1,.7-.1,1.4,1.4,0,0,0,.9-.3,1.11,1.11,0,0,0,.4-1.1,1,1,0,0,0-.5-.8m-2.1-1.6V78a.49.49,0,0,1,.3-.1c.5-.1.7.2.9.7a.84.84,0,0,1-.2.7c-.1.2-.3.2-.5.2l-.2.1Zm1.2,3.6c-.2.1-.4.1-.5-.1a2.35,2.35,0,0,1-.2-.8l-.1-.8h.1a1.1,1.1,0,0,1,.8,0c.3.1.4.4.5.7.2.6,0,1-.6,1"/><path class="cls-1" d="M36.4,79.5v-.2c-.2,0-.5.1-.5-.2s.1-.7.1-1v-.2l1.4-.2.4.7c0,.1.1.3.1.4.1.3-.2.3-.3.4v.1c.2,0,.5-.1.8-.1a1.7,1.7,0,0,1,.7-.1v-.2a.75.75,0,0,1-.5-.1c-.1-.2-.3-.5-.4-.7l-1.6-3.2h-.2l-.5,2.8c-.1.4-.1.8-.2,1.4a.64.64,0,0,1-.5.5v.1a1.27,1.27,0,0,0,.6-.1Zm0-3.7.9,1.7-1.2.1Z"/><path class="cls-1" d="M63.7,80.5a.57.57,0,0,1-.2.7l.1.1a2.19,2.19,0,0,1,.5-.3c.2-.1.3-.2.5-.3l-.1-.1c-.1.1-.4.2-.5,0a4.4,4.4,0,0,1-.2-1l-.1-.2,1.3-.6.5.4c.2.1.3.3.4.4s-.1.4-.3.4l.1.2a2.51,2.51,0,0,1,.7-.4,2.51,2.51,0,0,1,.7-.4l-.1-.1c-.1,0-.3.1-.5,0a3.17,3.17,0,0,1-.6-.5l-2.8-2.4h-.2l.6,2.8a5.85,5.85,0,0,1,.2,1.3m1-2-1,.5-.3-1.8Z"/><path class="cls-1" d="M65.7,75.4l1.5,2.1a3,3,0,0,1,.5.7c.1.3,0,.4-.2.6l.1.1a1.76,1.76,0,0,1,.5-.4,1,1,0,0,0,.5-.4V78a.66.66,0,0,1-.6.1,3.74,3.74,0,0,1-.6-.7L66,75.5l3.8,1.2a1.42,1.42,0,0,0,.6.2l.1-.1-1.7-2.3a8.74,8.74,0,0,0-.8-1c-.1-.3.1-.3.2-.5l-.1-.1a.78.78,0,0,0-.4.4l-.6.3.1.1c.3-.1.4-.2.7,0s.4.6.6.8l1.2,1.6-4.1-1.3a.76.76,0,0,1-.4.2c-.1.2-.2.2-.4.3l.1.2c.2-.2.4-.2.8-.1"/><path class="cls-1" d="M14.2,77.2a1.15,1.15,0,0,0-.4-1.7c-.2-.1-.4-.3-.6-.4s-.5-.3-.7-.5l-.1.1c.2.1.4.2.3.5a4.23,4.23,0,0,0-.5.7l-1,1.6a2,2,0,0,1-.6.7c-.1.2-.3,0-.5-.1v.2c.2.1.4.3.6.4a4.23,4.23,0,0,1,.7.5l.1-.1c-.2-.2-.4-.3-.3-.5s.3-.6.4-.8l.5-.6s.2.2.3.2a1,1,0,0,0,1.8-.2m-.6-.3a.77.77,0,0,1-1.2.3c-.1-.1-.2-.1-.2-.2l.8-1.3c.2-.3.2-.3.4-.1.5.4.6.8.2,1.3"/><path class="cls-1" d="M71,75.6c0,.3,0,.4-.2.6l.1.2c.1-.2.3-.3.4-.4a2.19,2.19,0,0,0,.5-.3l-.1-.2c-.1.1-.3.3-.5.1a2.93,2.93,0,0,1-.3-1l-.1-.1,1.2-.9.6.4c.1.1.3.2.4.3s-.1.4-.2.5l.1.1c.2-.2.4-.3.6-.5a2.09,2.09,0,0,1,.6-.4v-.2a.66.66,0,0,1-.6.1,2.09,2.09,0,0,1-.6-.4l-3.1-2.1-.1.1.9,2.7a7.37,7.37,0,0,0,.4,1.4m.7-2.2-.9.7-.7-1.8Z"/><path class="cls-1" d="M17.1,77.5v.2c.1.1.3.2.1.5a12,12,0,0,1-1.1,1.2l-1.4,1.1.4-1.8c.1-.3.4-1.4.5-1.6s.4-.1.5,0l.1-.1a4.35,4.35,0,0,1-.7-.4c-.2-.1-.4-.3-.6-.4l-.1.1c.3.3.2.6.1,1L14,81.1l.2.1,2.7-2.3c.4-.3.8-.8,1.3-.5v-.1a2.19,2.19,0,0,0-.5-.3,2.65,2.65,0,0,1-.6-.5"/><path class="cls-1" d="M58.7,82.2l.3-1.3h-.2c-.1.4-.1.6-.5.8-.2.1-.5,0-.8,0-.6-.1-.7-.3-.6-1.1l.3-2c.1-.2.1-.7.2-.9s.4-.1.5-.1l.1-.2a2.77,2.77,0,0,1-.9-.1c-.2,0-.5-.1-.7-.1l-.1.1a.55.55,0,0,1,.5.3c0,.2-.1.7-.1.9l-.3,1.9a3.09,3.09,0,0,0-.2.8.73.73,0,0,1-.6.2v.1c1,.2,2,.3,3.1.5-.2.1,0,0,0,.2"/><path class="cls-1" d="M10.1,77.2c-.5.5-.8.4-1.4.1a.68.68,0,0,1-.4-.6c0-.2.2-.4.3-.6l.6-1c.5.3.7.5.3,1.1l.1.1a4.23,4.23,0,0,0,.5-.7c.1-.2.3-.4.5-.7h-.1c-.3.3-.6.6-1.3.1l.9-1.4c.2-.2.2-.2.3-.1l.3.2c.5.4.7.6.3,1.3l.1.1.6-.8L9.5,72.7l-.2.1c.2.1.4.2.3.5a4.23,4.23,0,0,0-.5.7l-1,1.5c-.2.2-.5.6-.6.7a.44.44,0,0,1-.5-.1l-.1.1,2.5,1.9.6-.9Z"/><path class="cls-1" d="M54.6,81.1c-.1-.2-.1-.6-.2-.8l-.7-3.6-.2-.1-1.2,2.5c-.2.4-.4.8-.6,1.3-.2.3-.3.4-.6.4l-.1.1c.2,0,.4.1.6.1s.4.1.6.1V81c-.1-.1-.4-.1-.4-.4a10.37,10.37,0,0,0,.4-1l.1-.2,1.5.2.1.7v.6c0,.2-.3.1-.4.1l-.1.2a2,2,0,0,1,.8.1c.3,0,.6.1.8.1v-.1c-.2,0-.3,0-.4-.2m-2.1-1.9.8-1.7.3,1.9Z"/><path class="cls-1" d="M51.6,77.4l.1.1.2-1.1-3.6-.6-.2,1.1.2.1c.1-.8.3-.8.9-.7.2,0,.5.1.4.2l-.4,3.3c-.1.5-.2.6-.8.6v.1a3.08,3.08,0,0,0,1,.1,2.92,2.92,0,0,0,.9.2v-.1c-.5-.2-.5-.3-.5-.8l.5-3.3c0-.2.3-.1.6-.1.6.1.8.3.7.9"/><path class="cls-1" d="M60.6,78c0,.1.1.6.1.8l.1,2c0,.2.1.6,0,.8s-.3.3-.4.3V82a2.2,2.2,0,0,0,.8-.1H62v-.1c-.2,0-.4,0-.5-.2a2.77,2.77,0,0,1-.1-.9l-.2-1.9v-.9c.1-.2.3-.2.5-.2v-.2c-.3,0-.6.1-.8.1h-.8v.2c.2,0,.4-.1.5.2"/></g></g></svg>