<svg xmlns="http://www.w3.org/2000/svg" viewBox="0 0 141.41 90.8"><defs><style>.cls-1{fill:#009640;}.cls-2{fill:#e30613;}.cls-3{fill:#fff;}.cls-4{fill:#164194;}</style></defs><g id="Capa_2" data-name="Capa 2"><g id="Livello_1" data-name="Livello 1"><path class="cls-1" d="M50.58,42.2A51.58,51.58,0,0,0,19,89.8H7.08a63.54,63.54,0,0,1,38.2-58.3"/><path class="cls-2" d="M95.48,31.2a63.5,63.5,0,0,1,38.8,58.6h-11.8a51.58,51.58,0,0,0-31.6-47.6"/><path class="cls-3" d="M90.88,42.1a51.13,51.13,0,0,0-40.6-.1l-4.6-10.9a64,64,0,0,1,49.9.1l-4.7,10.9Z"/><path class="cls-4" d="M122.48,90.8v-1h0v1h-1v-1A50.56,50.56,0,0,0,106.68,54h0a50.32,50.32,0,0,0-35.8-14.8h0A50.56,50.56,0,0,0,35.08,54h0a50.32,50.32,0,0,0-14.8,35.8h0v1H6.38v-1A64.49,64.49,0,0,1,71,25.3h0a64.55,64.55,0,0,1,64.6,64.5h0v1Zm10.9-2a62.38,62.38,0,0,0-18.3-43.2h0a62.44,62.44,0,0,0-44.2-18.3h0a62.27,62.27,0,0,0-44.2,18.3h0A61.43,61.43,0,0,0,8.28,88.8h9.9a52.7,52.7,0,0,1,52.7-51.7h0a52.63,52.63,0,0,1,52.7,51.7h9.8Z"/><path class="cls-4" d="M141.18,59a2.35,2.35,0,0,0-3.1-1.2L80.18,82.1a9.52,9.52,0,0,0-2.1-1.9l24.2-57.9a2.35,2.35,0,0,0-1.2-3.1A2.39,2.39,0,0,0,98,20.5L72.28,78c-.4,0-.9-.1-1.3-.1a11.48,11.48,0,0,0-1.9.1L43.38,20.5a2.39,2.39,0,0,0-3.1-1.3,2.35,2.35,0,0,0-1.2,3.1l24.4,58.2a7.69,7.69,0,0,0-1.8,1.8L3.28,57.8A2.35,2.35,0,0,0,.18,59a2.39,2.39,0,0,0,1.3,3.1L59.28,88a9.7,9.7,0,0,0-.1,1.7H83a13.55,13.55,0,0,0-.2-2L140,62.1a2.27,2.27,0,0,0,1.2-3.1"/><path class="cls-4" d="M77.08,16.7h4.1l.5-7.5a23,23,0,0,0,0-2.8h0s.6,1.7.9,2.8l1.7,4.8h3.5l1.7-4.8c.4-1,.9-2.8.9-2.8h0a23,23,0,0,0,0,2.8l.5,7.5H95L93.68.1h-4.2l-2.4,7c-.4,1.1-.8,2.7-.8,2.7h0s-.5-1.7-.8-2.7l-2.4-7h-4.6l-1.4,16.6Z"/><path class="cls-4" d="M57,16.7h4.2L55.48.1h-4.3l-5.7,16.6h4.2l1-3.5h5.2L57,16.7ZM53.38,3.8s.4,1.8.7,2.9L55,9.9h-3.3l1-3.2c.3-1,.7-2.9.7-2.9Zm8.5,12.9h5.9c5.2,0,8.6-3.1,8.6-8.4S73,0,67.78,0h-5.9V16.7ZM66,13.2V3.5h1.7c2.7,0,4.5,1.6,4.5,4.8s-1.7,4.9-4.5,4.9Z"/></g></g></svg>