<svg xmlns="http://www.w3.org/2000/svg" viewBox="0 0 65.78 65.78"><defs><style>.cls-1{fill:#005936;}.cls-2{fill:#fff;}</style></defs><g id="Capa_2" data-name="Capa 2"><g id="Livello_1" data-name="Livello 1"><path class="cls-1" d="M4.83,32.89A28.06,28.06,0,1,1,32.89,61,28.06,28.06,0,0,1,4.83,32.89"/><polygon class="cls-2" points="26.35 39.08 26.35 43.25 12.17 43.25 12.17 39.08 16.95 39.08 16.95 28.04 12.47 29.54 12.47 24.87 18.84 22.53 21.92 22.53 21.92 39.08 26.35 39.08"/><path class="cls-2" d="M32.86,28.35a2.63,2.63,0,0,0,2.83,2.56,2.68,2.68,0,0,0,2.87-2.56,2.61,2.61,0,0,0-2.87-2.5,2.57,2.57,0,0,0-2.83,2.5m6,8.56a2.87,2.87,0,0,0-3.14-2.68,2.73,2.73,0,1,0,0,5.4,2.89,2.89,0,0,0,3.14-2.72m5.24.34c0,3.9-3.1,6.4-8.38,6.4s-8.38-2.5-8.38-6.4a5.47,5.47,0,0,1,3.32-5A4.76,4.76,0,0,1,28.16,28c0-3.53,3.14-5.91,7.53-5.91s7.5,2.38,7.5,5.91a4.82,4.82,0,0,1-2.44,4.21,5.45,5.45,0,0,1,3.32,5"/><polygon class="cls-2" points="52.04 34.27 52.04 37.8 49.18 37.8 49.18 34.27 45.49 34.27 45.49 31.51 49.18 31.51 49.18 27.98 52.04 27.98 52.04 31.51 55.74 31.51 55.74 34.27 52.04 34.27"/><path class="cls-1" d="M32.89,65.78A32.89,32.89,0,1,1,65.78,32.89,32.93,32.93,0,0,1,32.89,65.78Zm0-64.5A31.61,31.61,0,1,0,64.5,32.89,31.65,31.65,0,0,0,32.89,1.28Z"/></g></g></svg>