<svg xmlns="http://www.w3.org/2000/svg" viewBox="0 0 238.91 65.81"><defs><style>.cls-1{fill:#005936;}.cls-2{fill:#c8d400;}</style></defs><g id="Capa_2" data-name="Capa 2"><g id="Livello_1" data-name="Livello 1"><path class="cls-1" d="M100.93,38.56c0-1.9,1.3-3.06,3.41-3.06s3.42,1.12,3.42,3.06-1.3,3.12-3.42,3.12S100.93,40.51,100.93,38.56Z"/><path class="cls-1" d="M170.56,54.88c0-6.44,4.62-11.2,11-11.2,6.22,0,10.5,4.37,10.5,10.55v.43c0,1.08-.34,1.68-1.47,1.68H176.05c.43,3.16,2.85,5,6.13,5a6.41,6.41,0,0,0,6-3.11c0-.09,2.94.3,2.94,2.72s-3.24,4.84-9.12,4.84C175.1,65.81,170.56,61.53,170.56,54.88Zm5.49-2.08h10.37a4.71,4.71,0,0,0-4.93-4.88A5.46,5.46,0,0,0,176.05,52.8Z"/><path class="cls-1" d="M45.76,62.52V40c0-1.95,1-2.9,2.72-2.9h.87c1.86,0,2.81,1,2.81,2.9V62.52c0,1.91-.95,2.9-2.81,2.9h-.87C46.71,65.42,45.76,64.43,45.76,62.52Z"/><path class="cls-1" d="M62.62,47.4a8,8,0,0,1,6.95-3.72c5.49,0,7.83,3.89,7.83,8.73V62.52c0,2.21-1.13,2.9-2.68,2.9h-.65c-1.64,0-2.77-.65-2.77-2.9v-9.2c0-2.81-1.42-4.54-3.89-4.54a5.09,5.09,0,0,0-4.66,2.77v11c0,2.21-1.13,2.9-2.68,2.9h-.65c-1.65,0-2.77-.65-2.77-2.9V44.63a3.4,3.4,0,0,1,2.29-.69C60.5,43.94,62.18,44.68,62.62,47.4Z"/><path class="cls-1" d="M79.69,61.14a2.93,2.93,0,0,1,1.86-2.51,9.39,9.39,0,0,0,7,2.81c2.38,0,3.72-.69,3.72-2,0-1.6-1.69-1.86-4.54-2.46s-7.43-1.6-7.43-6.4c0-4.1,3.46-6.83,8.81-6.83,5.71,0,8.56,2.08,8.56,4.5a3.06,3.06,0,0,1-2,2.59A8.32,8.32,0,0,0,89.45,48c-2.29,0-3.58.74-3.58,2.08,0,1.51,1.68,1.73,4.49,2.37,3,.65,7.78,1.65,7.78,6.44,0,4.24-3.5,6.83-9.29,6.83C82.67,65.72,79.69,63.56,79.69,61.14Z"/><path class="cls-1" d="M101.3,62.52V46.88c0-2.2,1.16-2.94,2.72-2.94h.65c1.64,0,2.72.69,2.72,2.94V62.52c0,2.21-1.12,2.9-2.68,2.9h-.65C102.46,65.42,101.3,64.77,101.3,62.52Z"/><path class="cls-1" d="M109.75,54.88c0-6.44,4.63-11.2,11-11.2,6.22,0,10.5,4.37,10.5,10.55v.43c0,1.08-.34,1.68-1.47,1.68H115.24c.43,3.16,2.85,5,6.14,5a6.39,6.39,0,0,0,6-3.11c0-.09,2.94.3,2.94,2.72s-3.24,4.84-9.12,4.84C114.29,65.81,109.75,61.53,109.75,54.88Zm5.49-2.08h10.37a4.71,4.71,0,0,0-4.93-4.88A5.46,5.46,0,0,0,115.24,52.8Z"/><path class="cls-1" d="M140,47.31a7.56,7.56,0,0,1,6.53-3.63c3.5,0,5.74,1.64,6.74,4.32a7.94,7.94,0,0,1,7.13-4.32c5.36,0,7.61,3.42,7.61,8.39V62.52c0,2.21-1.13,2.9-2.68,2.9h-.65c-1.65,0-2.77-.65-2.77-2.9V53.06c0-2.81-1.25-4.28-3.67-4.28A4.92,4.92,0,0,0,154,51.37V62.52c0,2.21-1.08,2.9-2.68,2.9h-.61c-1.64,0-2.81-.65-2.81-2.9V53.19q0-4.41-3.63-4.41a4.92,4.92,0,0,0-4.19,2.59V62.52c0,2.21-1.12,2.9-2.68,2.9h-.65c-1.64,0-2.76-.65-2.76-2.9V44.63a3.4,3.4,0,0,1,2.29-.69C137.84,43.94,139.53,44.63,140,47.31Z"/><path class="cls-2" d="M68.89,37.69V11.59a3.4,3.4,0,0,1,2.29-.69c1.6,0,3.33.78,3.72,3.67a7.53,7.53,0,0,1,6.91-3.93c5.71,0,9.77,4.28,9.77,11,0,6.57-4,11.11-9.86,11.11A7.41,7.41,0,0,1,75,28.92v8.77c0,2.21-1.12,2.94-2.68,2.94h-.65C70,40.63,68.89,39.94,68.89,37.69Zm16.81-16c0-3.67-2.2-6.18-5.4-6.18A5.52,5.52,0,0,0,75,19v4.11a5,5,0,0,0,5.27,4.84C83.54,27.93,85.7,25.42,85.7,21.7Z"/><path class="cls-1" d="M111.43,21.85a1.25,1.25,0,0,0-1.26,1,5.85,5.85,0,0,1-11.6,0,1.27,1.27,0,0,0-1.27-1H93.59a.49.49,0,0,0-.5.52c.32,6.18,4.8,10.4,11.21,10.4s11-4.25,11.3-10.4a.51.51,0,0,0-.5-.52Z"/><path class="cls-2" d="M14.74,29.78l-6-7.52H6.35v7.22c0,1.82-.95,2.9-2.76,2.9H2.68C1,32.38,0,31.12,0,28.88V7.79C0,5.54,1.25,4.24,3.33,4.24h8.25c7.26,0,11,3,11,8.73,0,4.5-2.55,7.52-7.26,8.3L22.6,30c.26.31-1,2.34-3.67,2.34C17.11,32.38,16.08,31.6,14.74,29.78ZM6.27,17.6h4.88c3.41,0,5.06-1.6,5.06-4.2S14.48,9.21,11,9.21H6.27Z"/><path class="cls-2" d="M24.68,21.83c0-6.44,4.62-11.19,11-11.19,6.22,0,10.5,4.36,10.5,10.54v.44c0,1.08-.35,1.68-1.47,1.68H30.17c.43,3.16,2.85,5,6.13,5a6.39,6.39,0,0,0,6-3.11c0-.08,2.93.31,2.93,2.73S42,32.77,36.09,32.77C29.22,32.77,24.68,28.49,24.68,21.83Zm5.49-2.07H40.54c-.13-2.94-2-4.89-4.93-4.89A5.47,5.47,0,0,0,30.17,19.76Z"/><path class="cls-2" d="M47.5,28.1a2.91,2.91,0,0,1,1.85-2.51,9.43,9.43,0,0,0,7,2.81c2.38,0,3.72-.69,3.72-2,0-1.6-1.69-1.86-4.54-2.46s-7.43-1.6-7.43-6.4c0-4.11,3.46-6.83,8.81-6.83,5.71,0,8.56,2.08,8.56,4.5a3.06,3.06,0,0,1-2,2.59A8.32,8.32,0,0,0,57.26,15c-2.29,0-3.58.73-3.58,2.07,0,1.52,1.68,1.73,4.49,2.38,3,.65,7.78,1.64,7.78,6.44,0,4.24-3.5,6.83-9.29,6.83C50.48,32.68,47.5,30.52,47.5,28.1Z"/><path class="cls-2" d="M124.6,14.36a8,8,0,0,1,7-3.72c5.49,0,7.83,3.89,7.83,8.73V29.48c0,2.21-1.13,2.9-2.68,2.9h-.65c-1.64,0-2.77-.65-2.77-2.9v-9.2c0-2.81-1.42-4.54-3.89-4.54a5.1,5.1,0,0,0-4.66,2.76v11c0,2.21-1.13,2.9-2.68,2.9h-.65c-1.64,0-2.77-.65-2.77-2.9V11.59a3.4,3.4,0,0,1,2.29-.69C122.48,10.9,124.16,11.63,124.6,14.36Z"/><path class="cls-2" d="M141.67,28.1a2.9,2.9,0,0,1,1.86-2.51,9.4,9.4,0,0,0,6.95,2.81c2.38,0,3.72-.69,3.72-2,0-1.6-1.68-1.86-4.54-2.46s-7.43-1.6-7.43-6.4c0-4.11,3.46-6.83,8.82-6.83,5.7,0,8.55,2.08,8.55,4.5a3.06,3.06,0,0,1-2,2.59A8.32,8.32,0,0,0,151.43,15c-2.29,0-3.58.73-3.58,2.07,0,1.52,1.68,1.73,4.49,2.38,3,.65,7.78,1.64,7.78,6.44,0,4.24-3.5,6.83-9.29,6.83C144.65,32.68,141.67,30.52,141.67,28.1Z"/><path class="cls-2" d="M162,26.59c0-4.84,4.32-7,13.57-7.18h.69c0-2.72-1.51-4.19-4.32-4.19a5.4,5.4,0,0,0-5.23,3.24c0,.09-3.93.22-3.93-2.59,0-2.64,3.11-5.23,9.55-5.23,6.65,0,9.94,3,9.94,8.69V31.82c0,.3-1.13.69-2.29.69-2,0-3.24-1-3.59-3.33a8.65,8.65,0,0,1-7.3,3.5C164.66,32.68,162,30.17,162,26.59ZM176.24,24V22.74l-1.12,0c-4.8.13-7.31,1.08-7.31,3.37,0,1.56,1.26,2.55,3.29,2.55C174.12,28.7,176.24,26.72,176.24,24Z"/><path class="cls-2" d="M192.1,29.09v.39c0,2.21-1.12,2.9-2.68,2.9h-.65c-1.64,0-2.76-.65-2.76-2.9V2.86c0-.22,1.08-.69,2.29-.69,1.81,0,3.8,1,3.8,4.88v7.13a7.84,7.84,0,0,1,6.83-3.54c5.7,0,9.77,4.28,9.77,11,0,6.57-4,11.11-9.86,11.11A7.36,7.36,0,0,1,192.1,29.09Zm10.72-7.39c0-3.67-2.2-6.18-5.4-6.18A5.52,5.52,0,0,0,192.1,19v4.11a5,5,0,0,0,5.28,4.84C200.66,27.93,202.82,25.42,202.82,21.7Z"/><path class="cls-2" d="M211.68,29.48V13.84c0-2.21,1.17-2.94,2.72-2.94h.65c1.64,0,2.72.69,2.72,2.94V29.48c0,2.21-1.12,2.9-2.68,2.9h-.64C212.85,32.38,211.68,31.73,211.68,29.48Z"/><path class="cls-2" d="M222.05,29.48V2.86c0-.22,1.08-.69,2.29-.69,1.82,0,3.81,1,3.81,4.88V29.48c0,2.21-1.13,2.9-2.68,2.9h-.65C223.22,32.38,222.05,31.73,222.05,29.48Z"/><path class="cls-2" d="M232.42,29.48V13.84c0-2.21,1.17-2.94,2.73-2.94h.65c1.64,0,2.72.69,2.72,2.94V29.48c0,2.21-1.13,2.9-2.68,2.9h-.65C233.59,32.38,232.42,31.73,232.42,29.48Z"/><path class="cls-2" d="M100.93,3.07c0-1.9,1.3-3.07,3.41-3.07s3.42,1.12,3.42,3.07-1.3,3.11-3.42,3.11S100.93,5,100.93,3.07Z"/><path class="cls-2" d="M97.26,19.82a1.27,1.27,0,0,0,1.26-1,5.85,5.85,0,0,1,11.6,0,1.27,1.27,0,0,0,1.27,1h3.71a.5.5,0,0,0,.5-.52c-.32-6.18-4.8-10.39-11.21-10.39s-11,4.25-11.3,10.4a.49.49,0,0,0,.5.51Z"/><path class="cls-2" d="M211.33,4.5c0-1.9,1.3-3.07,3.42-3.07s3.41,1.13,3.41,3.07-1.29,3.11-3.41,3.11S211.33,6.45,211.33,4.5Z"/><path class="cls-2" d="M232.08,4.5c0-1.9,1.3-3.07,3.41-3.07s3.42,1.13,3.42,3.07-1.3,3.11-3.42,3.11S232.08,6.45,232.08,4.5Z"/></g></g></svg>