<?xml version="1.0" encoding="UTF-8"?>
<svg width="148px" height="48px" viewBox="0 0 148 48" version="1.1" xmlns="http://www.w3.org/2000/svg" xmlns:xlink="http://www.w3.org/1999/xlink">
    <title>9EFF2A4C-B0FE-4B99-A9D2-5AD7CDAEB51A</title>
    <g id="00-LAYOUT" stroke="none" stroke-width="1" fill="none" fill-rule="evenodd">
        <g id="02-SISAL-LOGOS" transform="translate(-274.000000, -424.000000)">
            <g id="Logo-Sisal-Color" transform="translate(248.000000, 344.000000)">
                <g id="Sisal-Logo" transform="translate(26.000036, 79.999880)">
                    <path d="M100.422588,19.8905159 C104.845621,19.8905159 107.780556,20.9540753 109.254608,22.4921727 C109.69182,22.9509802 109.964857,23.5557321 109.964857,24.2347672 C109.964857,25.6461463 108.816519,26.7909802 107.400411,26.7909802 C106.885941,26.7909802 106.410979,26.6319269 106.009763,26.3714991 C104.532199,25.4460189 102.74648,24.8744759 100.87648,24.8744759 C98.1979016,24.8744759 96.6834646,25.7300425 96.6834646,27.2908618 C96.6834646,29.0518086 98.6026294,29.3550585 101.937902,30.0585633 C105.425058,30.8153771 111.033304,31.9724458 111.033304,37.5620316 C111.033304,42.4953043 106.941251,45.5155683 100.167987,45.5155683 C95.4526005,45.5155683 92.3306655,44.4441436 90.728435,42.9156593 L90.728435,42.9156593 L90.7161439,42.8946852 C90.2420593,42.4393735 89.9479513,41.8005387 89.9479513,41.0909165 C89.9479513,39.7057549 91.0743412,38.5845168 92.4632336,38.5845168 C92.9443417,38.5845168 93.3929662,38.7164786 93.7739897,38.949815 L93.7739897,38.949815 L93.7792574,38.9646716 C95.3691967,39.9058823 97.3849343,40.5316083 99.7650146,40.5316083 C102.543677,40.5316083 104.11079,39.7267289 104.11079,38.1650357 C104.11079,36.3035883 102.139827,36.0003384 98.8045543,35.2959597 C95.418361,34.5408937 90.112125,33.4318905 90.112125,27.8440526 C90.112125,23.061094 94.1558912,19.8905159 100.422588,19.8905159 Z M125.503859,19.8400908 C133.284992,19.8400908 137.125078,23.364606 137.125078,29.9591987 L137.125078,29.9591987 L137.125078,44.5090758 C137.125078,44.863013 135.812565,45.315703 134.446499,45.315703 C132.225325,45.315703 130.657334,44.1061991 130.254362,41.3883111 C128.484446,43.9550111 125.402018,45.5158304 121.714694,45.5158304 C116.559462,45.5158304 113.426992,42.5960671 113.426992,38.4169866 C113.426992,32.7793352 118.480383,30.2117613 129.293024,30.0588254 L129.293024,30.0588254 L130.10248,30.0588254 C130.10248,26.8882474 128.333442,25.1779879 125.049089,25.1779879 C122.567168,25.1779879 120.953524,26.1489119 119.907026,27.4091031 C119.343393,28.0933816 118.523402,28.4945105 117.565575,28.4945105 C115.866772,28.4945105 114.489293,27.1224577 114.489293,25.4296766 C114.489293,24.886099 114.628006,24.367865 114.878218,23.9247881 C116.145077,21.6683293 119.647158,19.8400908 125.503859,19.8400908 Z M64.4527339,11.6339916 C68.6571622,11.6339916 71.7123742,12.524515 73.6552432,13.7750931 C74.4910368,14.3344012 75.0467693,15.2922164 75.0467693,16.3715064 C75.0467693,18.0878832 73.6482197,19.481784 71.9239564,19.481784 C71.3427638,19.481784 70.7721063,19.2973871 70.3068011,19.0229765 C68.6220448,18.0433134 66.62211,17.4228309 64.5528185,17.4228309 C60.9655782,17.4228309 58.8936528,18.9338368 58.8936528,21.3004094 C58.8936528,24.1187981 61.8241981,24.3704868 65.8679643,25.2767408 C71.7782193,26.5867453 76.9334505,29.0520708 76.9334505,35.1957212 C76.9334505,41.6889392 72.1820691,45.5158304 63.5423159,45.5158304 C58.2158874,45.5158304 54.6742997,44.1734909 52.7296748,42.4501227 L52.7296748,42.4501227 L52.699825,42.4562401 C52.0650784,41.8916884 51.6656182,41.0710785 51.6656182,40.1578332 C51.6656182,38.4571868 53.0501209,37.0790166 54.7568255,37.0790166 C55.4319572,37.0790166 56.0561686,37.2940007 56.5644926,37.6592988 L56.5644926,37.6592988 C58.5003382,38.8819115 60.9357284,39.7252433 63.4922736,39.7252433 C67.3824013,39.7252433 69.4534487,38.2657986 69.4534487,35.7489119 C69.4534487,32.8291486 66.1699738,32.3764586 62.3290104,31.5208919 C57.0736946,30.3612014 51.7182943,28.348566 51.7182943,21.7032861 C51.7182943,15.6610102 56.6198025,11.6339916 64.4527339,11.6339916 Z M143.511436,11.6406334 C145.58424,11.6406334 147.852822,12.7216711 147.852822,17.1961363 L147.852822,17.1961363 L147.852822,41.8974563 L147.85809,41.9236739 C147.85809,43.8393043 146.298,45.3940061 144.374446,45.3940061 C142.450014,45.3940061 140.892558,43.8393043 140.892558,41.9236739 L140.892558,41.9236739 L140.895192,41.8974563 L140.895192,12.4262865 C140.895192,12.1815892 142.129567,11.6406334 143.511436,11.6406334 Z M83.1619567,22.7042729 C85.088145,22.7042729 86.6447228,24.2581008 86.6447228,26.1737312 L86.6447228,26.1737312 L86.642089,26.6570084 L86.642089,41.8972815 L86.6447228,41.9234991 C86.6447228,43.8391295 85.088145,45.3938314 83.1619567,45.3938314 C81.2384023,45.3938314 79.6791906,43.8391295 79.6791906,41.9234991 L79.6791906,41.9234991 L79.6835803,41.8972815 L79.6835803,26.6570084 L79.6791906,26.1737312 C79.6791906,24.2581008 81.2384023,22.7042729 83.1619567,22.7042729 Z M130.10248,33.936404 L128.788212,33.9862173 C123.179088,34.1382792 120.248543,35.2446607 120.248543,37.9144831 C120.248543,39.7269911 121.714694,40.8840598 124.088628,40.8840598 C127.624949,40.8840598 130.10248,38.5681745 130.10248,35.3460353 L130.10248,35.3460353 L130.10248,33.936404 Z M83.1882947,11.8820972 C85.663192,11.8820972 87.1293426,13.18948 87.1293426,15.4564258 C87.1293426,17.7207499 85.663192,19.0805678 83.1882947,19.0805678 C80.7116416,19.0805678 79.1963267,17.7207499 79.1963267,15.4564258 C79.1963267,13.2401673 80.7116416,11.8820972 83.1882947,11.8820972 Z" id="Sisal" fill="#00643C"></path>
                    <path d="M20.8617945,15.2638141 C17.7354698,16.3902956 16.3465774,17.7518614 19.4298833,20.1096948 C23.5833914,23.2828946 28.2294206,25.6992806 29.189003,26.4447335 C30.8842945,27.754738 31.4049096,28.337642 30.2820314,30.494474 C30.08713,30.8711331 29.20305,32.3052342 28.8992846,32.8007462 C27.7623595,34.6700589 26.7246409,35.4775601 29.8553553,37.2350111 C31.6322947,38.2339005 36.5750658,40.3470366 41.0595551,41.3826306 C44.5739269,42.1962492 45.1103448,40.4588983 43.6942365,37.2568591 C41.6934238,32.727337 39.0842026,28.5561217 37.4960191,26.2507235 C35.6128496,23.5171049 35.3283988,23.5328354 38.1386671,21.5368045 C40.4845081,19.8684932 42.173654,18.6126716 44.1094995,16.9670821 C47.734491,13.8926352 45.6897816,12.0635227 41.58456,12.2418022 C37.0026199,12.4410557 26.6324578,13.1856347 20.8617945,15.2638141" id="Star-02" fill="#B9D732"></path>
                    <path d="M26.2507319,25.6774326 C25.6695393,24.9057622 25.0453279,24.2188618 24.5668536,23.6088664 C22.9690128,22.6169684 21.157834,21.4310603 19.4300589,20.1096948 C16.346753,17.7518614 17.7356454,16.3902956 20.8619701,15.2638141 C21.250895,15.123987 21.6617684,14.9902774 22.0893225,14.8626852 C22.3052943,14.7420844 22.5344352,14.6232314 22.7986935,14.5122437 C24.0910131,13.9599269 26.5202578,13.1227126 28.2963192,12.1011013 C30.3480521,10.9221846 30.3814136,10.4974599 29.4674838,8.46734614 C28.8125447,7.01576672 27.6650843,5.44446039 26.6695066,4.08464246 C23.6063932,-0.103177297 22.8197639,0.126663395 21.0542377,3.59961742 C19.8725379,5.92511583 18.0824295,10.1173052 16.936725,12.363277 C16.5284855,13.1629128 16.400307,13.3385705 15.556612,13.7589256 C14.3125788,14.3820298 11.308287,15.1274827 9.39351192,15.685043 C7.07049729,16.3632041 4.81596154,17.3096584 3.48676874,17.9790803 C1.35602175,19.0487572 0.506181172,20.7074554 3.93890499,22.6597904 C6.91510288,24.3551932 10.156437,25.7927899 11.7560336,27.2566042 C12.8376489,28.2493762 12.8157005,28.2476283 12.3609305,29.7359124 C11.9860524,30.9593989 9.16612689,39.652271 8.17406093,43.6670548 C7.19779779,47.612799 8.73681693,48.8397813 12.0396065,46.5195264 C15.9525604,43.7675555 22.0085525,38.1167954 26.0874361,33.6432041 C29.7238407,29.6546379 28.8230799,29.0979515 26.2507319,25.6774326" id="Star-01" fill="#00643C"></path>
                    <path d="M5.16529167,0.585558252 C5.60952652,0.893177733 6.08536701,1.31178492 6.57876618,1.71815725 C6.71045636,1.82564928 7.18190717,1.96635024 7.69023124,1.73126603 C7.69023124,1.73126603 8.74989816,1.24536708 9.2424194,1.03387869 C10.4285089,0.526131761 11.0070677,0.929008411 10.5215699,2.07209444 C10.2713586,2.65762015 9.64626926,3.59183954 9.37498751,3.97374214 C9.21871517,4.19659148 9.0159123,4.64141624 9.3187997,4.92806167 C9.6243209,5.21645493 11.1861663,6.48363745 11.6918566,6.95730154 C12.98681,8.17379676 12.583838,9.17093832 11.0184809,9.0136329 C10.520692,8.96381952 8.3996023,8.81525329 7.30569594,8.57492557 C6.91062542,8.48665975 6.72889298,8.48054232 6.3601605,9.0136329 C6.3601605,9.0136329 5.41023539,10.5823175 4.62448403,11.525276 C3.73425847,12.5958268 2.80364792,12.5093088 3.00996252,10.8855674 C3.13023954,9.93823918 3.28475601,8.54084273 3.3304086,8.20263609 C3.37518326,7.8670512 3.30407057,7.45805711 2.93621602,7.40824373 C2.59118777,7.35930427 1.68691526,7.26754278 0.989835278,7.09101114 C-0.289315262,6.7667872 -0.209423224,6.32108852 0.55350184,5.5144613 C1.09782122,4.93942261 1.99419232,4.37487095 2.58504223,3.89334159 C3.26105178,3.34189872 3.21013158,2.25998702 3.22681234,1.3983029 C3.26017385,-0.27874762 3.87121624,-0.311956541 5.16529167,0.585558252" id="Star-mini" fill="#EB1E23"></path>
                </g>
            </g>
        </g>
    </g>
</svg>